<svg width="364" height="232" viewBox="0 0 364 232" fill="none" xmlns="http://www.w3.org/2000/svg">
<path d="M195.715 120.534H165.699V128.45H195.715V120.534Z" fill="#EBEBEB"/>
<path d="M181.202 136.784C181.202 136.784 181.202 136.733 181.202 136.64V136.233C181.202 135.862 181.202 135.342 181.202 134.688C181.202 133.323 181.176 131.356 181.15 128.878L181.244 128.971L151.228 129.033L151.384 128.878V130.887C151.384 131.562 151.384 132.226 151.384 132.885V136.779L151.234 136.63L172.626 136.697L178.936 136.743H180.647H181.093H181.249C181.202 136.749 181.155 136.749 181.109 136.743H180.684H179.009L172.73 136.784L151.234 136.851H151.083V128.883L151.234 128.734L181.249 128.791H181.342V128.883C181.342 131.386 181.306 133.37 181.29 134.75C181.29 135.404 181.29 135.919 181.29 136.295C181.29 136.455 181.29 136.584 181.29 136.687C181.29 136.79 181.207 136.79 181.202 136.784Z" fill="#E0E0E0"/>
<path d="M348.269 12.1016H318.254V20.0182H348.269V12.1016Z" fill="#EBEBEB"/>
<path d="M333.762 28.3571C333.758 28.3091 333.758 28.2609 333.762 28.2129C333.762 28.1048 333.762 27.9708 333.762 27.806C333.762 27.4352 333.762 26.9149 333.762 26.2608C333.762 24.8907 333.731 22.9283 333.71 20.4508L333.803 20.5435L303.788 20.6054L303.938 20.4508V28.3571L303.788 28.2078L325.176 28.2747L331.491 28.3159H333.197H333.648H333.803H333.663H333.238H331.563L325.285 28.3623L303.788 28.4292H303.638V24.4632C303.638 23.8039 303.638 23.1343 303.638 22.4648V20.4663L303.793 20.3118L333.808 20.3736H333.902V20.4663C333.902 22.9644 333.86 24.9474 333.85 26.3278C333.85 26.9871 333.85 27.497 333.85 27.873C333.85 28.0326 333.85 28.1614 333.85 28.2593C333.824 28.295 333.795 28.3279 333.762 28.3571Z" fill="#E0E0E0"/>
<path d="M122.945 28.7898H92.9298V36.7064H122.945V28.7898Z" fill="#EBEBEB"/>
<path d="M207.489 73.4204H177.474V81.337H207.489V73.4204Z" fill="#EBEBEB"/>
<path d="M44.8557 90.1138H11.5895V98.8545H44.8557V90.1138Z" fill="#EBEBEB"/>
<path d="M43.8706 30.9583C43.8706 30.9583 43.8706 30.9016 43.8706 30.7986C43.8706 30.6956 43.8706 30.5359 43.8706 30.3505C43.8706 29.9436 43.8706 29.3667 43.8706 28.6302C43.8706 27.121 43.8395 24.9526 43.8136 22.2176L43.9173 22.3206L10.6563 22.3875C10.7289 22.3103 10.4852 22.5524 10.8222 22.2176V30.9737L10.6563 30.8089L34.3149 30.8707L41.3093 30.9171H43.2017H43.7202H43.8965C43.8451 30.926 43.7924 30.926 43.741 30.9171H43.2691H41.413L34.4549 30.9634L10.6356 31.0355H10.4645V30.8707C10.4645 29.4663 10.4645 28.0327 10.4645 26.5699V22.2227L10.6356 22.0527L43.8965 22.1197H44.0002V22.2227C44.0002 24.9835 43.9587 27.1725 43.9432 28.6971C43.9432 29.4234 43.9432 29.9899 43.9432 30.3968C43.9432 30.572 43.9432 30.7162 43.9432 30.8244C43.9432 30.9325 43.8758 30.9634 43.8706 30.9583Z" fill="#E0E0E0"/>
<path d="M48.3814 22.2176C48.3744 22.1628 48.3744 22.1074 48.3814 22.0527C48.3814 21.924 48.3814 21.7746 48.3814 21.5892C48.3814 21.1565 48.3814 20.559 48.3503 19.8328C48.3503 18.2876 48.314 16.1397 48.2881 13.4768L48.4074 13.5953L28.4249 13.6417L28.5908 13.4768V17.9734C28.5908 19.4362 28.5908 20.8526 28.5908 22.2124L28.4301 22.0527L42.7299 22.13L46.8778 22.1712H48.0029C48.1359 22.163 48.2692 22.163 48.4022 22.1712C48.2814 22.1807 48.16 22.1807 48.0392 22.1712H46.9504L42.8025 22.2124L28.3938 22.2897H28.233V22.2176C28.233 20.8578 28.233 19.4413 28.233 17.9785V13.482L28.4041 13.312L48.3866 13.3584H48.5111V13.482C48.4799 16.1758 48.4592 18.3648 48.4437 19.9152C48.4437 20.6414 48.4437 21.2183 48.4125 21.6407C48.4142 21.8334 48.4038 22.0261 48.3814 22.2176Z" fill="#E0E0E0"/>
<path d="M207.458 30.7934C207.458 30.7934 207.458 30.7368 207.458 30.6389C207.458 30.541 207.458 30.3711 207.458 30.1908C207.458 29.7787 207.458 29.2019 207.458 28.4705C207.458 26.9613 207.427 24.7877 207.401 22.0527L207.505 22.1557L174.244 22.2227C174.317 22.1454 174.073 22.3926 174.41 22.0527V30.7934L174.244 30.6286L197.949 30.7059L204.897 30.7677H206.79H207.308H207.484C207.434 30.7754 207.384 30.7754 207.334 30.7677H206.857H205.001L198.043 30.814L174.223 30.8861H174.057V30.7162C174.057 29.3152 174.057 27.8781 174.057 26.4205V21.9909C174.394 21.6561 174.151 21.8982 174.229 21.8261L207.489 21.8879H207.593V21.9909C207.567 24.7517 207.552 26.9458 207.536 28.4653C207.536 29.1915 207.536 29.7581 207.536 30.165C207.536 30.3402 207.536 30.4844 207.536 30.5977C207.536 30.711 207.489 30.7986 207.458 30.7934Z" fill="#E0E0E0"/>
<path d="M211.969 22.0525C211.962 21.9978 211.962 21.9424 211.969 21.8877C211.969 21.7641 211.969 21.6096 211.969 21.4241C211.969 20.9915 211.969 20.394 211.938 19.6729C211.938 18.1277 211.902 15.9747 211.876 13.3118L211.995 13.4303L192.013 13.4818C191.857 13.6311 192.215 13.2757 192.179 13.3118V17.8083C192.179 19.2711 192.179 20.6876 192.179 22.0474L192.018 21.8877L206.318 21.9649L210.466 22.0062H211.591H211.99C211.869 22.0191 211.748 22.0191 211.627 22.0062H210.538L206.39 22.0525L191.982 22.1246H191.821V21.9598C191.821 20.6 191.821 19.1836 191.821 17.7208V13.3169L191.992 13.147L211.974 13.1933H212.099V13.3118C212.068 16.0056 212.047 18.1946 212.031 19.745C212.031 20.4712 212.031 21.0481 212 21.4705C212.002 21.6649 211.992 21.8593 211.969 22.0525Z" fill="#E0E0E0"/>
<path d="M352.21 175.198C352.206 175.145 352.206 175.092 352.21 175.038C352.21 174.92 352.21 174.771 352.21 174.59C352.21 174.178 352.21 173.601 352.184 172.87C352.184 171.361 352.153 169.187 352.127 166.452L352.23 166.555L318.969 166.622C319.042 166.545 318.798 166.792 319.135 166.452V170.882C319.135 172.339 319.135 173.777 319.135 175.183L318.969 175.018L342.675 175.09L349.674 175.136H351.567H352.059C352.118 175.129 352.177 175.129 352.235 175.136H352.08H351.608H349.752L342.794 175.183L318.969 175.26H318.803V166.468C319.14 166.133 318.897 166.375 318.975 166.303L352.235 166.365H352.339V166.468C352.313 169.228 352.298 171.423 352.282 172.942C352.282 173.668 352.282 174.235 352.256 174.642C352.256 174.817 352.256 174.961 352.256 175.075C352.245 175.117 352.229 175.158 352.21 175.198Z" fill="#E0E0E0"/>
<path d="M359.365 99.4264C359.365 99.4264 359.365 99.3697 359.365 99.2667C359.365 99.1637 359.365 99.004 359.365 98.8186C359.365 98.4065 359.365 97.8348 359.365 97.0982C359.365 95.5891 359.334 93.4207 359.308 90.6856L359.411 90.7886L326.15 90.8505L326.316 90.6856V99.4418L326.15 99.277L349.856 99.3491L356.85 99.4006H358.742H359.261C359.32 99.3963 359.379 99.3963 359.437 99.4006C359.387 99.4058 359.337 99.4058 359.287 99.4006H358.81H356.954L349.996 99.447L326.176 99.5242H326.01V99.3594C326.01 97.9533 326.01 96.5162 326.01 95.0586V90.6238L326.181 90.4539L359.442 90.5208H359.546V90.6238C359.546 93.3846 359.505 95.5736 359.489 97.0982C359.489 97.8245 359.489 98.3911 359.489 98.7928C359.489 98.9731 359.489 99.1122 359.489 99.2255C359.47 99.3037 359.426 99.3739 359.365 99.4264Z" fill="#E0E0E0"/>
<path d="M363.875 90.6857C363.872 90.6292 363.872 90.5724 363.875 90.5158C363.875 90.3922 363.875 90.2376 363.875 90.0522C363.875 89.6247 363.875 89.0221 363.844 88.301C363.844 86.7558 363.808 84.6028 363.782 81.9399L363.901 82.0635L343.919 82.1098C343.763 82.2592 344.121 81.9038 344.085 81.945V86.4416C344.085 87.9044 344.085 89.3208 344.085 90.6806L343.919 90.5209L358.219 90.593L362.367 90.6394H363.492C363.625 90.628 363.758 90.628 363.891 90.6394C363.77 90.6468 363.649 90.6468 363.528 90.6394H362.439L358.291 90.6857L343.883 90.763H343.722V90.6033C343.722 89.2435 343.722 87.8271 343.722 86.3643V81.8678C343.686 81.8987 344.043 81.5433 343.893 81.6978L363.875 81.7441H364V81.8626C363.969 84.5564 363.948 86.7455 363.932 88.2958C363.932 89.0221 363.932 89.5989 363.901 90.0213C363.908 90.2431 363.899 90.4651 363.875 90.6857Z" fill="#E0E0E0"/>
<path d="M2.40186 207.606L12.7042 193.9L47.2769 195.147L60.2028 210.738L42.3824 223.326C42.3824 223.326 15.3433 222.77 14.2026 222.013C13.0619 221.256 2.40186 207.606 2.40186 207.606Z" fill="#F5F5F5"/>
<path d="M56.0914 196.105C57.9838 196.857 68.1514 210.171 68.1514 210.171L88.0509 213.617L111.569 206.133L104.974 193.9L56.0914 196.105Z" fill="#F5F5F5"/>
<path d="M48.6094 225.278L64.9936 212.968L87.1641 216.388L92.4008 223.326L80.0038 230.336L48.6094 225.278Z" fill="#F5F5F5"/>
<path d="M95.8386 215.409L129.348 205.386L148.164 207.606L158.021 219.092L145.525 226.216H121.908L103.186 222.476L95.8386 215.409Z" fill="#F5F5F5"/>
<path d="M359.79 209.265L349.493 195.59L314.936 196.831L302.01 212.396L319.83 224.985C319.83 224.985 346.864 224.434 348 223.676C349.135 222.919 359.79 209.265 359.79 209.265Z" fill="#F5F5F5"/>
<path d="M306.121 197.784C304.234 198.531 294.061 211.85 294.061 211.85L274.141 215.296L250.617 207.797L257.212 195.59L306.121 197.784Z" fill="#F5F5F5"/>
<path d="M313.588 226.937L297.198 214.627L275.028 218.047L269.796 224.985L282.188 232L313.588 226.937Z" fill="#F5F5F5"/>
<path d="M266.359 217.073L232.849 207.05L214.033 209.265L204.176 220.756L216.672 227.879H240.289L259.012 224.14L266.359 217.073Z" fill="#F5F5F5"/>
<path d="M133.372 191.804L138.417 201.147L160.318 203.486L172.611 191.315L133.372 191.804Z" fill="#F5F5F5"/>
<path d="M159.193 211.284C159.027 211.856 164.077 219.582 164.077 219.582L181.705 223.326L196.026 221.652L210.165 211.284C210.165 211.284 209.009 203.558 208.184 203.769C207.36 203.98 178.568 203.671 178.568 203.671L159.193 211.284Z" fill="#F5F5F5"/>
<path d="M200.034 193.9L198.867 198.675L213.965 202.157L231.148 201.018V193.117L200.034 193.9Z" fill="#F5F5F5"/>
<path d="M354.6 190.233C354.6 190.31 278.061 190.372 183.66 190.372C89.2589 190.372 12.7043 190.31 12.7043 190.233C12.7043 190.156 89.2278 190.094 183.66 190.094C278.092 190.094 354.6 190.156 354.6 190.233Z" fill="#263238"/>
<path d="M308.501 189.162C312.872 190.47 317.803 187.957 320.11 184.047C322.417 180.138 322.428 175.203 321.1 170.861C319.773 166.519 317.238 162.662 314.619 158.948C312.001 155.234 309.253 151.557 307.402 147.416C304.156 140.127 303.97 131.484 307.2 124.191C310.43 116.898 317.113 111.134 324.911 109.254C332.709 107.374 341.446 109.615 347.175 115.188C353.252 121.095 355.549 129.95 355.626 138.397C355.657 141.219 355.455 144.104 354.382 146.72C353.309 149.337 351.271 151.665 348.539 152.499C345.215 153.529 341.461 152.077 339.107 149.527C336.753 146.978 335.634 143.516 335.224 140.086C334.742 136.053 334.944 131.433 331.994 128.615C328.65 125.417 322.583 126.679 319.814 130.382C317.046 134.086 317.098 139.277 318.689 143.609C320.281 147.941 323.19 151.644 325.922 155.378C330.412 161.518 334.633 168.255 335.4 175.811C335.816 179.936 335.17 184.098 333.522 187.906C331.874 191.715 329.278 195.044 325.979 197.583C322.68 200.121 318.786 201.784 314.662 202.417C310.538 203.05 306.32 202.63 302.404 201.199" fill="#3E6464"/>
<g opacity="0.3">
<path d="M355.626 138.417C355.466 141.235 355.455 144.124 354.382 146.741C353.309 149.357 351.271 151.686 348.539 152.52C345.215 153.55 341.461 152.098 339.107 149.548C336.753 146.998 335.633 143.537 335.224 140.107L334.28 132.798C336.359 129.303 339.034 126.196 342.187 123.614L342.555 128.003C342.555 128.003 348.191 123.558 353.843 125.994C353.843 125.994 355.891 133.828 355.626 138.417Z" fill="white"/>
</g>
<path d="M237.816 179.623C236.204 179.801 234.654 180.345 233.286 181.211C231.918 182.077 230.768 183.243 229.925 184.619C228.255 187.407 227.591 190.677 228.042 193.89C228.502 197.083 229.654 200.139 231.418 202.847C229.09 202.981 227.296 205.211 226.985 207.509C226.788 208.956 227.119 210.568 228.229 211.526C229.339 212.484 231.034 212.603 232.558 212.592C238.531 212.561 244.484 211.969 250.436 211.377L237.816 179.623Z" fill="#3E6464"/>
<g opacity="0.3">
<path d="M237.816 179.623C236.204 179.801 234.654 180.345 233.286 181.211C231.918 182.077 230.768 183.243 229.925 184.619C228.255 187.407 227.591 190.677 228.042 193.89C228.502 197.083 229.654 200.139 231.418 202.847C229.09 202.981 227.296 205.211 226.985 207.509C226.788 208.956 227.119 210.568 228.229 211.526C229.339 212.484 231.034 212.603 232.558 212.592C238.531 212.561 244.484 211.969 250.436 211.377L237.816 179.623Z" fill="black"/>
</g>
<path d="M234.041 156.007C232.548 171.938 232.735 188.06 235.415 203.836C234.078 204.602 232.921 205.641 232.019 206.885C231.179 208.163 230.837 209.852 231.501 211.238C232.284 212.912 234.28 213.715 236.136 213.772C237.992 213.828 239.859 213.617 241.71 213.617C243.784 213.617 247.289 213.761 249.248 213.231L250.431 197.733L234.041 156.007Z" fill="#3E6464"/>
<path d="M234.041 156.007C234.482 157.109 240.937 173.411 250.555 197.727V197.758C250.187 202.61 249.793 207.833 249.383 213.257V213.355L249.29 213.38C248.038 213.651 246.76 213.784 245.479 213.777C244.183 213.808 242.887 213.777 241.539 213.777C239.781 213.777 238.028 213.957 236.281 213.916C235.392 213.911 234.512 213.736 233.689 213.401C232.871 213.074 232.162 212.524 231.646 211.815C231.157 211.092 230.93 210.225 231.003 209.358C231.068 208.515 231.333 207.7 231.775 206.978C232.694 205.64 233.906 204.526 235.322 203.723L235.26 203.857C233.407 192.508 232.683 181.006 233.098 169.517C233.243 165.263 233.481 161.879 233.673 159.566C233.766 158.407 233.875 157.506 233.932 156.898C233.989 156.29 234.01 156.13 234.021 156.002C234.021 156.295 233.927 157.351 233.766 159.571C233.601 161.889 233.388 165.268 233.248 169.522C232.897 181.005 233.666 192.495 235.545 203.831V203.919L235.467 203.965C234.09 204.75 232.91 205.835 232.014 207.138C231.593 207.821 231.34 208.594 231.278 209.394C231.211 210.202 231.423 211.008 231.879 211.681C232.363 212.349 233.031 212.864 233.803 213.164C234.585 213.49 235.423 213.665 236.271 213.679C237.997 213.72 239.745 213.55 241.523 213.54C242.856 213.54 244.167 213.571 245.458 213.54C246.717 213.546 247.972 213.414 249.202 213.149L249.103 213.272C249.518 207.854 249.917 202.626 250.285 197.774V197.83L234.041 156.007Z" fill="#263238"/>
<path d="M239.382 128.961C239.382 128.961 231.921 151.881 234.005 172.293C236.089 192.705 251.172 210.79 251.172 210.79L278.999 213.617L300.848 206.123L297.737 160.39C290.899 148.209 284.827 136.419 285.294 127.987L239.382 128.961Z" fill="#3E6464"/>
<path d="M294.533 177.119C294.015 176.867 274.504 174.132 273.467 192.118C273.467 192.118 272.114 197.423 277.454 202.554C277.454 202.554 271.906 202.203 271.232 210.161C271.194 210.617 271.247 211.075 271.388 211.511C271.529 211.946 271.756 212.349 272.055 212.697C272.354 213.044 272.719 213.33 273.13 213.536C273.54 213.743 273.988 213.867 274.447 213.901C280.187 214.313 292.101 214.859 297.26 212.819C304.146 210.084 308.968 206.324 309.828 194.946C310.689 183.568 306.386 170.223 297.732 160.406C292.485 154.462 294.533 177.119 294.533 177.119Z" fill="#3E6464"/>
<path d="M251.851 173.143C252.443 168.891 251.585 164.565 249.414 160.854C248.128 158.67 246.169 156.615 243.638 156.321C241.108 156.028 238.516 157.743 237.209 159.994C235.903 162.244 235.597 164.938 235.55 167.539C235.475 174.064 236.815 180.529 239.479 186.494C242.143 192.458 246.07 197.783 250.991 202.106" fill="white"/>
<path d="M252.079 167.287C252.079 168.58 251.322 199.922 249.352 202.78C247.382 205.639 241.456 203.038 245.018 213.633H262.361C262.361 213.633 265.218 213.375 268.863 202.78C272.508 192.185 275.085 180.303 275.085 180.303L272.71 155.651L252.079 167.287Z" fill="#3E6464"/>
<path d="M278.154 163.383C278.154 163.383 278.154 163.476 278.118 163.651L277.988 164.434C277.869 165.129 277.693 166.144 277.47 167.447C277.008 170.074 276.334 173.87 275.499 178.588C275.396 179.18 275.287 179.788 275.173 180.406C275.059 181.024 274.893 181.647 274.748 182.286C274.452 183.568 274.125 184.897 273.783 186.278C273.094 189.028 272.3 191.985 271.419 195.075C270.537 198.165 269.526 201.395 268.308 204.707C267.68 206.393 266.941 208.036 266.094 209.626C265.661 210.448 265.158 211.232 264.59 211.969C264.45 212.158 264.3 212.338 264.139 212.51C263.977 212.692 263.804 212.864 263.621 213.025C263.269 213.383 262.832 213.647 262.351 213.793H244.909L244.883 213.695C244.282 212.054 243.907 210.341 243.768 208.601C243.702 207.73 243.881 206.857 244.286 206.082C244.762 205.366 245.459 204.824 246.272 204.537C247.031 204.258 247.763 203.914 248.46 203.507C248.782 203.294 249.057 203.019 249.269 202.698C249.366 202.536 249.442 202.363 249.497 202.183C249.564 202.003 249.62 201.819 249.663 201.632C250 200.146 250.244 198.641 250.394 197.125C251.032 191.207 251.281 185.902 251.514 181.487C251.747 177.073 251.856 173.525 251.945 171.088C251.986 169.878 252.017 168.935 252.038 168.286C252.038 167.977 252.038 167.735 252.038 167.565V167.318C252.042 167.4 252.042 167.483 252.038 167.565V168.291C252.038 168.935 252.007 169.878 251.986 171.088C251.929 173.53 251.83 177.073 251.639 181.493C251.447 185.912 251.203 191.217 250.602 197.151C250.454 198.678 250.211 200.196 249.876 201.694C249.831 201.889 249.774 202.082 249.705 202.271C249.652 202.455 249.579 202.633 249.487 202.801C249.257 203.148 248.959 203.446 248.611 203.677C247.902 204.089 247.155 204.434 246.381 204.707C245.618 204.98 244.966 205.494 244.525 206.17C244.144 206.901 243.979 207.724 244.048 208.544C244.188 210.26 244.559 211.949 245.152 213.566L245.023 213.473H262.351C262.769 213.328 263.148 213.09 263.46 212.778C263.632 212.626 263.794 212.463 263.942 212.289C264.1 212.126 264.247 211.954 264.383 211.774C264.942 211.049 265.438 210.279 265.866 209.471C266.708 207.893 267.444 206.262 268.069 204.588C269.288 201.292 270.283 198.057 271.18 194.977C272.077 191.897 272.865 188.961 273.565 186.221C273.911 184.847 274.238 183.522 274.545 182.245C274.691 181.601 274.836 180.978 274.981 180.365C275.126 179.752 275.204 179.144 275.313 178.557C276.184 173.844 276.868 170.053 277.387 167.426C277.63 166.128 277.822 165.119 277.952 164.423L278.107 163.646C278.128 163.47 278.154 163.383 278.154 163.383Z" fill="#263238"/>
<path d="M247.802 203.671C247.802 203.671 247.719 203.62 247.589 203.501L247.019 202.986C246.77 202.754 246.469 202.471 246.143 202.111C245.816 201.75 245.422 201.369 245.028 200.905C244.219 199.999 243.312 198.871 242.363 197.573C241.353 196.151 240.422 194.676 239.574 193.154C238.743 191.623 237.999 190.048 237.344 188.436C236.813 187.117 236.351 185.773 235.96 184.408C235.778 183.831 235.659 183.295 235.54 182.826C235.42 182.358 235.332 181.956 235.27 181.621C235.208 181.286 235.161 181.065 235.125 180.859C235.101 180.77 235.09 180.678 235.094 180.586C235.133 180.668 235.162 180.755 235.182 180.843L235.374 181.601C235.452 181.93 235.555 182.327 235.69 182.79C235.825 183.254 235.955 183.779 236.146 184.336C236.499 185.495 236.981 186.849 237.577 188.327C238.897 191.53 240.574 194.576 242.576 197.408C243.504 198.711 244.39 199.844 245.168 200.761C245.552 201.23 245.925 201.632 246.246 201.992C246.568 202.353 246.848 202.651 247.081 202.894L247.6 203.465C247.674 203.527 247.741 203.596 247.802 203.671Z" fill="#263238"/>
<path d="M294.533 177.119H294.393L293.983 177.083C293.621 177.053 293.087 176.97 292.387 176.929C290.378 176.77 288.357 176.865 286.372 177.212C284.968 177.479 283.606 177.926 282.318 178.541C280.812 179.266 279.448 180.252 278.289 181.451C275.805 184.027 274.037 187.838 273.623 192.139C273.453 193.029 273.427 193.94 273.545 194.838C273.651 195.776 273.883 196.696 274.234 197.573C274.986 199.417 276.126 201.08 277.579 202.451L277.817 202.682H277.475C276.592 202.678 275.721 202.877 274.929 203.264C274.138 203.651 273.447 204.216 272.912 204.913C271.813 206.339 271.393 208.209 271.295 210.063C271.238 210.494 271.252 210.93 271.336 211.356C271.429 211.77 271.605 212.161 271.854 212.505C272.11 212.842 272.432 213.124 272.801 213.333C273.17 213.542 273.579 213.674 274.001 213.72C275.738 213.859 277.475 213.957 279.186 214.029C282.587 214.174 285.869 214.21 288.99 214.055C292.112 213.901 295.093 213.597 297.654 212.541C300.065 211.644 302.295 210.327 304.239 208.652C305.798 207.222 307.035 205.481 307.869 203.543C308.479 202.069 308.944 200.541 309.258 198.979C309.497 197.691 309.652 196.682 309.709 195.992C309.751 195.657 309.782 195.399 309.803 195.214C309.823 195.028 309.844 194.946 309.844 194.946C309.844 194.946 309.844 195.039 309.844 195.214C309.844 195.389 309.808 195.662 309.777 195.997C309.735 196.692 309.595 197.702 309.377 199C309.081 200.576 308.626 202.118 308.019 203.604C307.194 205.572 305.957 207.342 304.39 208.796C302.418 210.502 300.155 211.842 297.706 212.752C295.114 213.839 292.081 214.112 288.965 214.297C285.848 214.483 282.546 214.431 279.139 214.297C277.439 214.225 275.712 214.132 273.954 213.988C273.494 213.938 273.049 213.795 272.647 213.567C272.245 213.34 271.894 213.032 271.616 212.664C271.334 212.293 271.135 211.866 271.03 211.413C270.938 210.962 270.92 210.499 270.978 210.043C270.993 209.569 271.041 209.098 271.123 208.631L271.263 207.951C271.313 207.722 271.375 207.495 271.45 207.272C271.693 206.366 272.111 205.516 272.679 204.768C273.24 204.035 273.966 203.441 274.798 203.035C275.631 202.629 276.547 202.422 277.475 202.43L277.371 202.662C275.895 201.264 274.735 199.57 273.97 197.691C273.616 196.79 273.383 195.846 273.275 194.884C273.156 193.957 273.186 193.016 273.363 192.098V192.123C273.572 190.024 274.12 187.972 274.986 186.046C275.389 185.15 275.864 184.289 276.407 183.47C276.926 182.7 277.512 181.976 278.159 181.307C279.339 180.094 280.728 179.102 282.261 178.376C283.564 177.762 284.943 177.32 286.362 177.063C288.36 176.726 290.395 176.653 292.412 176.846C293.112 176.898 293.646 176.996 294.009 177.037L294.414 177.099C294.454 177.1 294.494 177.107 294.533 177.119Z" fill="#263238"/>
<path d="M287.305 204.588C286.789 204.448 286.281 204.276 285.786 204.073C283.356 203.237 280.824 202.731 278.258 202.569C277.724 202.562 277.191 202.525 276.661 202.456C277.191 202.363 277.731 202.336 278.268 202.373C280.867 202.427 283.436 202.94 285.854 203.888C286.362 204.068 286.849 204.303 287.305 204.588Z" fill="#263238"/>
<g opacity="0.3">
<path d="M279.388 180.091C280.704 178.085 282.48 176.418 284.572 175.228C286.663 174.038 289.009 173.359 291.417 173.246C293.745 173.159 296.26 173.715 297.789 175.461C298.308 176.022 298.588 177.006 297.945 177.408C297.743 177.488 297.527 177.525 297.31 177.517C297.093 177.509 296.88 177.456 296.685 177.362C291.573 175.749 284.879 176.785 279.627 180.091" fill="black"/>
</g>
<g opacity="0.3">
<path d="M266.597 138.963C270.818 138.371 274.805 136.661 278.911 135.512C273.208 139.216 266.872 142.069 260.147 143.079C253.422 144.088 246.288 143.146 240.445 139.725C240.398 139.725 249.487 141.348 266.597 138.963Z" fill="black"/>
</g>
<path d="M330.169 66.3076C329.038 65.5092 327.794 64.7881 326.436 65.0766C325.089 65.4388 323.877 66.1813 322.946 67.2141C318.083 72.133 317.398 79.9466 312.888 85.1848C310.976 87.3462 308.507 88.948 305.747 89.8176C302.987 90.6872 300.04 90.7915 297.224 90.1192L294.113 97.6856C302.409 101.682 312.898 99.7458 319.949 93.8534C327.001 87.9611 331.574 81.6927 332.45 71.9321C332.574 70.7887 332.481 67.9197 330.169 66.3076Z" fill="#3E6464"/>
<path d="M248.128 73.6678C248.128 73.6678 225.834 71.4118 217.465 90.3097L212.674 104.556C212.674 104.556 208.931 112.798 214.748 122.914C219.793 131.67 227.389 138.314 247.143 140.251C266.353 142.131 286.828 136.285 293.626 122.914C299.578 111.206 297.82 97.5052 294.995 92.473C291.158 85.5968 276.822 72.7304 248.128 73.6678Z" fill="#3E6464"/>
<path d="M242.964 74.3944C242.964 74.3944 231.718 67.6985 229.484 66.2872C223.428 62.4706 215.718 58.7672 212.944 64.0982C210.772 68.2857 219.399 92.9111 219.399 92.9111L234.539 81.013L242.964 74.3944Z" fill="#3E6464"/>
<g opacity="0.3">
<path d="M239.47 76.2123C239.47 76.2123 217.439 61.8676 215.588 63.6137C213.737 65.3598 221.292 85.8544 221.292 85.8544C221.292 85.8544 236.608 83.5159 239.47 76.2123Z" fill="black"/>
</g>
<path d="M219.041 85.5198C220.415 81.9143 223.708 78.3088 226.627 75.8313C226.057 77.2731 225.952 78.8551 226.326 80.3588C231.402 76.5782 236.774 72.6791 243.042 71.9065L241.347 76.1507L229.743 88.5123L219.041 85.5198Z" fill="#3E6464"/>
<path d="M241.098 72.2516C240.981 72.2299 240.862 72.2299 240.745 72.2516C240.522 72.2928 240.18 72.3237 239.755 72.4319C238.544 72.7088 237.359 73.0897 236.214 73.5702C232.392 75.1555 228.931 77.4887 226.036 80.4309L226.425 80.5287L226.363 80.3021C226.242 79.5549 226.26 78.7922 226.414 78.0513C226.539 77.3044 226.72 76.5782 226.85 75.8571L226.948 75.2956L226.497 75.6201C223.92 77.4961 221.806 79.9303 220.317 82.7384C219.887 83.5609 219.54 84.4236 219.28 85.3137C219.167 85.6316 219.094 85.962 219.062 86.2975C219.501 85.1265 220.02 83.9871 220.618 82.8878C222.157 80.1788 224.267 77.8317 226.803 76.0064L226.451 75.7695C226.326 76.47 226.14 77.2014 226.01 77.9688C225.839 78.7705 225.821 79.597 225.958 80.4051C225.984 80.4978 226.005 80.5905 226.026 80.673L226.129 81.0644L226.42 80.7708C229.279 77.8747 232.661 75.5386 236.39 73.8844C237.51 73.3786 238.666 72.9551 239.848 72.6173C240.272 72.522 240.69 72.3998 241.098 72.2516Z" fill="#263238"/>
<g opacity="0.4">
<path d="M238.791 103.645C240.272 102.195 242.188 101.262 244.25 100.987L248.128 73.6887C252.795 73.4363 257.98 73.8947 262.128 74.3944C262.128 74.3944 255.776 83.8407 253.495 101.224C254.517 101.624 255.482 102.157 256.362 102.811C260.8 106.123 262.853 112.442 261.267 117.83C259.68 123.218 254.578 127.307 249.093 127.616C243.607 127.925 238.116 124.449 235.908 119.293C234.838 116.683 234.541 113.823 235.052 111.051C235.562 108.279 236.859 105.71 238.791 103.645Z" fill="white"/>
</g>
<path d="M252.339 103.81C249.352 102.569 247.263 102.44 244.074 103.434C243.208 103.619 242.363 104.871 242.944 105.561L246.402 109.682C246.56 109.872 246.784 109.998 247.03 110.034C247.277 110.07 247.527 110.014 247.735 109.877L253.547 106.009C254.392 105.453 253.531 104.186 252.339 103.81Z" fill="#263238"/>
<path d="M247.366 107.915C247.267 108.156 247.208 108.412 247.19 108.672C247.101 109.377 247.101 110.09 247.19 110.794C247.307 111.847 247.624 112.867 248.123 113.802C248.739 114.941 249.65 115.896 250.762 116.568C251.859 117.241 253.136 117.565 254.423 117.495C255.471 117.41 256.479 117.055 257.347 116.465C257.933 116.067 258.438 115.562 258.835 114.977C258.991 114.768 259.107 114.532 259.177 114.281C258.66 115.059 257.992 115.726 257.212 116.244C256.368 116.771 255.403 117.079 254.407 117.14C253.188 117.187 251.982 116.871 250.944 116.233C249.885 115.596 249.012 114.694 248.414 113.617C247.911 112.731 247.572 111.763 247.413 110.758C247.306 109.814 247.29 108.862 247.366 107.915Z" fill="#263238"/>
<path d="M236.266 112.108C236.339 112.337 236.447 112.554 236.587 112.752C236.91 113.32 237.28 113.86 237.691 114.369C238.295 115.144 239.103 115.739 240.025 116.089C240.6 116.268 241.206 116.333 241.807 116.278C242.407 116.223 242.991 116.05 243.524 115.77C244.61 115.225 245.511 114.376 246.117 113.328C246.604 112.474 246.954 111.55 247.154 110.588C247.295 109.945 247.385 109.293 247.423 108.636C247.459 108.397 247.459 108.154 247.423 107.915C247.356 107.915 247.309 108.945 246.905 110.526C246.676 111.448 246.312 112.331 245.826 113.148C245.241 114.131 244.384 114.926 243.358 115.44C242.371 115.95 241.223 116.063 240.154 115.754C239.278 115.437 238.502 114.893 237.909 114.178C236.831 112.968 236.323 112.066 236.266 112.108Z" fill="#263238"/>
<path d="M242.482 119.422C242.672 119.883 242.982 120.287 243.379 120.591C244.258 121.401 245.367 121.922 246.554 122.083C247.742 122.245 248.951 122.038 250.016 121.492C250.476 121.303 250.877 120.995 251.177 120.601C251.136 120.545 250.69 120.874 249.891 121.204C248.858 121.641 247.725 121.791 246.612 121.64C245.499 121.488 244.448 121.04 243.571 120.344C242.882 119.813 242.539 119.36 242.482 119.422Z" fill="#263238"/>
<path d="M258.068 109.944C258.068 110.068 273.037 112.365 291.536 115.095C310.036 117.825 325.051 119.911 325.072 119.792C325.093 119.674 310.103 117.371 291.598 114.642C273.094 111.912 258.083 109.821 258.068 109.944Z" fill="#263238"/>
<path d="M257.726 112.149C257.899 112.233 258.082 112.297 258.27 112.339L259.826 112.803C261.194 113.199 263.18 113.74 265.643 114.384C270.569 115.672 277.402 117.325 284.993 118.927C292.584 120.529 299.511 121.76 304.53 122.569C307.044 122.97 309.077 123.279 310.487 123.47L312.11 123.676C312.298 123.712 312.489 123.728 312.68 123.722C312.499 123.658 312.311 123.614 312.12 123.588L310.508 123.295L304.581 122.265C299.578 121.379 292.656 120.091 285.081 118.494C277.506 116.898 270.657 115.291 265.716 114.08L259.883 112.664L258.291 112.283C258.106 112.223 257.917 112.178 257.726 112.149Z" fill="#263238"/>
<path d="M190.499 110.31C190.499 110.433 201.568 110.263 215.215 109.929C228.862 109.594 239.926 109.228 239.921 109.105C239.916 108.981 228.856 109.151 215.205 109.486C201.553 109.82 190.499 110.186 190.499 110.31Z" fill="#263238"/>
<path d="M199.551 117.768C199.577 117.892 208.184 116.357 218.777 114.338C229.37 112.319 237.961 110.593 237.925 110.47C237.888 110.346 229.297 111.886 218.699 113.9C208.101 115.914 199.531 117.65 199.551 117.768Z" fill="#263238"/>
<path d="M296.851 101.914C296.851 101.914 303.544 68.1774 299.023 63.4284C294.502 58.6795 267.8 77.1808 267.8 77.1808L292.781 94.9249L296.851 101.914Z" fill="#3E6464"/>
<g opacity="0.3">
<path d="M292.112 92.4423C292.112 92.4423 298.645 67.41 295.809 66.2665C292.972 65.1231 272.871 78.7673 272.871 78.7673C272.871 78.7673 282.442 92.1694 292.112 92.4423Z" fill="black"/>
</g>
<path d="M271.782 76.094C275.593 76.1249 280.078 78.0049 283.38 79.8798C281.849 79.8466 280.348 80.3074 279.103 81.1932C284.376 84.6802 289.867 88.4041 292.786 94.0699L288.28 93.9617L272.819 87.3225L271.782 76.094Z" fill="#3E6464"/>
<path d="M291.376 92.7771C291.376 92.7771 291.376 92.6534 291.261 92.4474C291.147 92.2414 291.044 91.9323 290.831 91.5512C290.243 90.4866 289.549 89.4839 288.757 88.5586C286.135 85.5626 282.942 83.1118 279.362 81.3477L279.264 81.2962L279.295 81.7031C280.448 80.8744 281.786 80.3354 283.194 80.1321L283.738 80.06L283.303 79.7252C280.934 77.9064 278.124 76.7393 275.157 76.3412C274.299 76.2234 273.431 76.1803 272.565 76.2124C272.252 76.2065 271.94 76.2412 271.637 76.3155C271.637 76.3927 272.949 76.2742 275.095 76.6296C277.983 77.1123 280.704 78.3019 283.012 80.0909L283.126 79.6789C281.641 79.8794 280.228 80.4421 279.015 81.3168L278.699 81.5434L279.041 81.7237L279.134 81.77C282.655 83.5244 285.819 85.9097 288.467 88.8059C290.536 91.031 291.287 92.8286 291.376 92.7771Z" fill="#263238"/>
<path d="M284.599 132.798C284.599 132.798 284.563 132.829 284.485 132.87L284.137 133.061L282.784 133.782L281.804 134.297C281.441 134.472 281.037 134.647 280.612 134.843C279.746 135.224 278.781 135.698 277.667 136.11L275.93 136.769C275.323 137.001 274.68 137.197 274.017 137.423C272.7 137.897 271.258 138.273 269.744 138.701C263.138 140.416 256.308 141.127 249.487 140.807C247.932 140.704 246.428 140.627 245.038 140.436C244.349 140.354 243.675 140.297 243.032 140.194L241.191 139.885C240.014 139.715 238.972 139.453 238.049 139.257C237.588 139.149 237.157 139.066 236.768 138.963L235.7 138.67L234.233 138.252L233.849 138.139C233.766 138.108 233.72 138.093 233.725 138.088H233.86L234.249 138.18L235.726 138.546L236.8 138.819C237.188 138.907 237.624 138.989 238.08 139.082C239.008 139.262 240.051 139.514 241.227 139.674L243.063 139.962C243.701 140.06 244.375 140.112 245.064 140.189C246.449 140.369 247.937 140.436 249.497 140.534C256.305 140.829 263.119 140.121 269.718 138.433C271.227 138.015 272.674 137.645 273.985 137.186C274.649 136.965 275.292 136.774 275.899 136.548L277.636 135.888C278.75 135.492 279.71 135.033 280.586 134.668C281.016 134.477 281.426 134.312 281.789 134.152L282.779 133.668L284.153 133.004L284.516 132.834C284.542 132.819 284.57 132.807 284.599 132.798Z" fill="#263238"/>
<path d="M235.856 92.7566C234.61 92.215 233.231 92.0499 231.891 92.2818C230.551 92.5137 229.309 93.1324 228.321 94.0608C227.332 94.9891 226.641 96.1859 226.333 97.502C226.025 98.8181 226.113 100.195 226.588 101.461C227.062 102.728 227.902 103.827 229.001 104.623C230.1 105.419 231.411 105.875 232.77 105.935C234.129 105.996 235.476 105.657 236.642 104.963C237.809 104.268 238.743 103.247 239.33 102.028C239.715 101.193 239.931 100.29 239.965 99.3718C239.999 98.4536 239.851 97.5377 239.528 96.6766C239.205 95.8155 238.715 95.0261 238.085 94.3534C237.455 93.6808 236.697 93.1381 235.856 92.7566Z" fill="white"/>
<path d="M236.561 91.2832C232.999 89.6041 228.856 90.8557 227.311 94.0852C225.766 97.3147 227.394 101.296 230.941 102.98C234.487 104.665 238.645 103.413 240.191 100.184C241.736 96.9542 240.123 92.9675 236.561 91.2832Z" fill="#263238"/>
<path d="M265.249 94.9044C263.981 95.3945 262.886 96.2448 262.101 97.3491C261.316 98.4535 260.876 99.7631 260.836 101.114C260.796 102.466 261.157 103.799 261.875 104.947C262.593 106.096 263.635 107.009 264.872 107.572C266.109 108.136 267.486 108.325 268.83 108.116C270.174 107.908 271.427 107.31 272.432 106.398C273.437 105.487 274.149 104.301 274.48 102.99C274.81 101.679 274.745 100.3 274.291 99.025C273.641 97.2884 272.323 95.8792 270.628 95.1067C268.933 94.3342 266.998 94.2614 265.249 94.9044Z" fill="white"/>
<path d="M264.699 93.3691C260.982 94.6774 258.944 98.4735 260.147 101.847C261.35 105.221 265.332 106.885 269.06 105.576C272.788 104.268 274.815 100.467 273.607 97.0982C272.399 93.7297 268.417 92.0609 264.699 93.3691Z" fill="#263238"/>
<path d="M297.364 99.787C297.419 99.2654 297.515 98.7488 297.649 98.2418C297.852 97.2889 298.121 95.9755 298.37 94.5178C298.619 93.0602 298.8 91.7262 298.93 90.763C298.97 90.2427 299.05 89.7262 299.168 89.2178C299.207 89.7451 299.191 90.2749 299.122 90.799C299.049 91.7674 298.894 93.1117 298.645 94.5796C298.396 96.0476 298.095 97.361 297.841 98.3036C297.733 98.8128 297.573 99.3098 297.364 99.787Z" fill="#263238"/>
<path d="M240.45 68.708C237.813 70.057 235.675 72.203 234.346 74.8367C233.016 77.4704 232.562 80.4555 233.051 83.3617C233.455 85.4735 234.606 87.6934 236.68 88.3321C239.185 89.1099 241.803 87.1578 243.001 84.84C244.198 82.5221 244.463 79.8489 245.375 77.4075C246.288 74.9661 248.227 72.5556 250.845 72.4216L240.45 68.708Z" fill="#3E6464"/>
<path d="M240.45 68.7078C240.45 68.7078 240.512 68.7078 240.631 68.7542L241.176 68.9345L243.25 69.6504L250.861 72.3185L251.379 72.5039L250.825 72.5296C249.519 72.64 248.307 73.2493 247.444 74.2294C246.455 75.3006 245.72 76.5783 245.292 77.9688C244.805 79.4161 244.499 80.9871 244.017 82.5735C243.777 83.3824 243.465 84.1684 243.084 84.9222C242.677 85.6925 242.142 86.389 241.502 86.9825C240.768 87.6983 239.861 88.216 238.868 88.4865C237.888 88.7459 236.845 88.632 235.944 88.1671C235.097 87.7003 234.4 87.0059 233.932 86.1635C233.48 85.3741 233.154 84.519 232.968 83.6294C232.63 81.9908 232.618 80.3023 232.932 78.659C233.199 77.2327 233.68 75.8542 234.358 74.5693C234.917 73.5083 235.615 72.5248 236.432 71.6437C237.04 70.9756 237.716 70.3715 238.448 69.841C238.913 69.5076 239.402 69.208 239.911 68.9448L240.31 68.749C240.351 68.722 240.396 68.7027 240.445 68.6924L240.315 68.7748L239.931 69.0014C239.438 69.2782 238.964 69.5862 238.511 69.9234C236.854 71.1931 235.498 72.809 234.539 74.6569C233.881 75.9291 233.418 77.2919 233.165 78.7002C232.865 80.3128 232.886 81.9682 233.227 83.5727C233.408 84.4357 233.724 85.2649 234.166 86.0296C234.612 86.8255 235.273 87.482 236.074 87.925C236.915 88.361 237.891 88.4659 238.806 88.2186C239.753 87.9583 240.618 87.4639 241.321 86.7816C241.935 86.2023 242.45 85.5273 242.845 84.7831C243.217 84.0438 243.522 83.2734 243.758 82.4808C244.24 80.9356 244.551 79.3388 245.049 77.8451C245.494 76.4207 246.254 75.1132 247.273 74.0182C248.185 73.0042 249.455 72.3788 250.82 72.2721L250.788 72.4781L243.265 69.7689L241.191 68.9963L240.673 68.7902L240.45 68.7078Z" fill="#263238"/>
<path d="M275.245 71.1287H263.942C260.946 76.1454 258.939 82.5735 261.573 87.8323C262.537 89.7535 264.243 91.5872 266.405 91.6438C269.029 91.7211 271.02 89.1355 271.538 86.5859C272.057 84.0363 271.59 81.3837 271.803 78.7877C272.015 76.1918 273.457 73.3898 275.245 71.1287Z" fill="#3E6464"/>
<path d="M275.245 71.1287L275.168 71.2471L274.903 71.6231C274.675 71.9476 274.343 72.4266 273.954 73.0653C273.483 73.845 273.072 74.6595 272.726 75.5016C272.262 76.6091 271.979 77.7826 271.886 78.9783C271.792 80.3124 271.886 81.7803 271.886 83.3616C271.901 84.1822 271.862 85.0031 271.766 85.8184C271.671 86.6922 271.433 87.5447 271.061 88.3423C270.675 89.187 270.123 89.9468 269.438 90.5777C269.075 90.8988 268.671 91.1707 268.235 91.3863C267.544 91.7112 266.776 91.8398 266.015 91.758C265.255 91.6762 264.532 91.3871 263.927 90.9228C263.087 90.314 262.381 89.541 261.853 88.6513C260.969 87.1511 260.424 85.478 260.256 83.7479C260.124 82.1244 260.24 80.4904 260.598 78.9011C261.247 76.1368 262.338 73.4937 263.828 71.072L263.859 71.0205H263.922L272.217 71.0875L274.462 71.1132H275.038C275.1 71.108 275.163 71.108 275.225 71.1132H275.012H274.405L272.124 71.139L263.922 71.2059L264.015 71.1493C262.556 73.5607 261.489 76.1854 260.852 78.9268C260.506 80.4901 260.398 82.096 260.531 83.6912C260.697 85.3788 261.227 87.0109 262.086 88.4762C262.594 89.335 263.274 90.0817 264.082 90.6704C264.857 91.2422 265.81 91.5232 266.773 91.4636C267.238 91.4258 267.693 91.3072 268.116 91.1133C268.529 90.9107 268.912 90.6543 269.257 90.351C269.913 89.7444 270.442 89.0144 270.812 88.2032C271.177 87.4308 271.412 86.6044 271.507 85.7566C271.608 84.952 271.653 84.1414 271.642 83.3307C271.642 81.7597 271.549 80.2814 271.642 78.9371C271.745 77.7214 272.045 76.5302 272.529 75.4089C272.905 74.5728 273.349 73.7683 273.856 73.0035C274.26 72.3648 274.608 71.8961 274.851 71.5819C274.971 71.4274 275.064 71.3193 275.131 71.242C275.199 71.1647 275.24 71.1287 275.245 71.1287Z" fill="#263238"/>
<g opacity="0.3">
<path d="M250.088 73.4776L237.246 71.6182C238.842 74.7086 241.948 76.8461 245.282 77.9072C248.616 78.9682 252.183 79.0558 255.683 78.9115C258.523 78.8504 261.346 78.4545 264.093 77.732C266.847 77.0054 269.377 75.6108 271.455 73.6733L250.088 73.4776Z" fill="black"/>
</g>
<path d="M253.287 37.2733C253.287 37.2733 240.035 35.9341 235.057 47.1677L232.221 55.6406C232.221 55.6406 229.997 60.5441 233.466 66.5549C236.463 71.752 240.979 75.7077 252.722 76.8563C264.129 77.974 276.313 74.4973 280.358 66.5549C283.894 59.5912 282.852 51.448 281.167 48.4554C278.87 44.3658 270.346 36.7221 253.287 37.2733Z" fill="#3E6464"/>
<path d="M250.218 37.7058C250.218 37.7058 243.535 33.7244 242.228 32.8848C238.63 30.6185 234.041 28.4191 232.377 31.5868C231.081 34.0746 236.214 48.718 236.214 48.718L245.215 41.641L250.218 37.7058Z" fill="#3E6464"/>
<g opacity="0.3">
<path d="M248.139 38.7876C248.139 38.7876 235.047 30.2529 233.932 31.2831C232.818 32.3132 237.334 44.5049 237.334 44.5049C237.334 44.5049 246.438 43.1296 248.139 38.7876Z" fill="black"/>
</g>
<path d="M236.006 45.5556C236.825 43.4078 238.796 41.2702 240.517 39.7971C240.178 40.653 240.114 41.5925 240.336 42.4858C243.353 40.2401 246.557 37.9223 250.275 37.4639L249.269 39.9877L242.368 47.3326L236.006 45.5556Z" fill="#3E6464"/>
<path opacity="0.3" d="M258.192 54.59C257.33 53.9711 256.295 53.6344 255.232 53.6268L251.654 53.5444C250.975 53.5216 250.298 53.6337 249.663 53.874C248.947 54.1493 248.297 54.5704 247.755 55.1102C246.614 56.3351 245.847 57.8575 245.545 59.4994C245.243 61.1413 245.418 62.8347 246.049 64.3814C246.672 65.9189 247.764 67.2234 249.173 68.1109C250.582 68.9984 252.235 69.4241 253.901 69.3279C255.566 69.2318 257.159 68.6186 258.454 67.5749C259.75 66.5312 260.683 65.1097 261.122 63.511C261.57 61.9026 261.532 60.1985 261.011 58.6118C260.49 57.0251 259.509 55.6262 258.192 54.59Z" fill="white"/>
<path d="M255.792 55.1977C255.03 54.8323 254.202 54.6238 253.357 54.5848C252.513 54.5459 251.669 54.6773 250.876 54.9711C250.358 55.0792 249.84 55.8261 250.208 56.2382L252.282 58.6899C252.376 58.8033 252.51 58.8777 252.656 58.8987C252.803 58.9196 252.952 58.8856 253.075 58.8032L256.533 56.506C257.01 56.1712 256.502 55.4192 255.792 55.1977Z" fill="#263238"/>
<path d="M252.836 57.6338C252.779 57.7788 252.744 57.9316 252.733 58.087C252.678 58.5059 252.678 58.9301 252.733 59.349C252.796 59.9799 252.979 60.5933 253.272 61.1569C253.636 61.8308 254.173 62.3975 254.827 62.7999C255.48 63.2002 256.24 63.3926 257.005 63.351C257.627 63.3031 258.225 63.0954 258.742 62.7484C259.091 62.5124 259.39 62.2116 259.623 61.8625C259.72 61.7406 259.791 61.6004 259.831 61.4505C259.522 61.9134 259.124 62.3108 258.659 62.6197C258.156 62.926 257.584 63.103 256.995 63.1347C256.264 63.1661 255.541 62.9775 254.921 62.5939C254.291 62.2184 253.771 61.6857 253.412 61.0487C253.119 60.5172 252.925 59.9381 252.836 59.3387C252.782 58.7716 252.782 58.2008 252.836 57.6338Z" fill="#263238"/>
<path d="M246.236 60.1267C246.282 60.262 246.347 60.3902 246.428 60.5079C246.621 60.8441 246.842 61.1645 247.086 61.4659C247.442 61.9312 247.921 62.2881 248.471 62.496C248.812 62.6013 249.171 62.6387 249.527 62.606C249.883 62.5733 250.229 62.4712 250.545 62.3055C251.195 61.9825 251.736 61.4776 252.1 60.853C252.393 60.3469 252.601 59.7973 252.717 59.2253C252.801 58.8437 252.857 58.4563 252.883 58.0664C252.902 57.9228 252.902 57.7774 252.883 57.6338C252.842 57.6338 252.816 58.2467 252.577 59.179C252.44 59.7226 252.224 60.2432 251.934 60.7242C251.589 61.3097 251.082 61.7837 250.472 62.0891C249.879 62.3997 249.188 62.4699 248.543 62.2849C248.022 62.0951 247.56 61.7717 247.206 61.3474C246.573 60.6418 246.272 60.1267 246.236 60.1267Z" fill="#263238"/>
<path d="M249.933 64.4739C249.907 64.4739 250.062 64.7984 250.451 65.1693C250.978 65.6502 251.64 65.9609 252.349 66.0603C253.061 66.1577 253.785 66.0336 254.423 65.7049C254.694 65.5964 254.932 65.4188 255.112 65.1899C255.087 65.1538 254.822 65.3495 254.345 65.5453C253.731 65.7992 253.061 65.8898 252.401 65.8079C251.741 65.7085 251.118 65.4425 250.591 65.0353C250.171 64.7108 249.964 64.4482 249.933 64.4739Z" fill="#263238"/>
<path d="M259.198 58.8443C259.198 58.9164 268.096 60.2813 279.098 61.8935C290.1 63.5057 299.023 64.7573 299.034 64.6852C299.044 64.6131 290.136 63.2481 279.134 61.6308C268.132 60.0135 259.209 58.7722 259.198 58.8443Z" fill="#263238"/>
<path d="M258.996 60.1577C259.099 60.2071 259.206 60.2451 259.317 60.271L260.251 60.544C261.065 60.7809 262.247 61.1003 263.709 61.4814C266.638 62.2489 270.698 63.2327 275.214 64.1856C279.73 65.1384 283.847 65.8698 286.828 66.3488C288.322 66.5909 289.53 66.7712 290.37 66.8639L291.334 66.9875C291.446 67.0047 291.558 67.015 291.671 67.0184C291.564 66.9781 291.453 66.9504 291.339 66.936L290.385 66.7609L286.859 66.1428C283.883 65.6277 279.782 64.8551 275.266 63.9074C270.75 62.9597 266.69 62.0017 263.756 61.2806L260.277 60.4256L259.328 60.1989C259.219 60.1717 259.108 60.1578 258.996 60.1577Z" fill="#263238"/>
<path d="M219.026 59.0605C219.026 59.1327 225.611 59.0348 233.72 58.8339C241.829 58.633 248.414 58.4167 248.408 58.3189C248.403 58.221 241.829 58.3446 233.714 58.5455C225.6 58.7464 219.026 58.9884 219.026 59.0605Z" fill="#263238"/>
<path d="M224.413 63.4955C224.413 63.5676 229.541 62.6559 235.82 61.4352C242.099 60.2145 247.226 59.205 247.2 59.1329C247.175 59.0608 242.073 59.9776 235.794 61.1932C229.515 62.4087 224.397 63.4234 224.413 63.4955Z" fill="#263238"/>
<path d="M282.255 54.0697C282.255 54.0697 286.232 34.0129 283.546 31.1852C280.861 28.3575 264.985 39.3645 264.985 39.3645L279.834 49.9131L282.255 54.0697Z" fill="#3E6464"/>
<g opacity="0.3">
<path d="M279.435 48.4398C279.435 48.4398 283.318 33.5543 281.633 32.8745C279.948 32.1946 267.997 40.3069 267.997 40.3069C267.997 40.3069 273.69 48.2802 279.435 48.4398Z" fill="black"/>
</g>
<path d="M267.997 39.689C270.263 39.689 272.928 40.8273 274.898 41.9398C273.987 41.923 273.094 42.1975 272.352 42.7227C275.463 44.783 278.75 47.0081 280.487 50.3869L277.807 50.3251L268.609 46.3694L267.997 39.689Z" fill="#3E6464"/>
<path d="M247.838 55.6973C247.636 55.6973 247.449 55.0277 247.133 54.0233C246.964 53.4738 246.712 52.9528 246.386 52.4781C246.042 51.9584 245.521 51.5784 244.919 51.4068C244.293 51.2943 243.647 51.3921 243.084 51.6849C242.572 51.9557 242.105 52.3032 241.699 52.715C240.958 53.4516 240.491 53.9976 240.32 53.8945C240.149 53.7915 240.32 53.1065 240.932 52.1021C241.323 51.4901 241.845 50.9714 242.461 50.5826C243.281 50.0589 244.275 49.8741 245.23 50.0676C245.702 50.19 246.143 50.4065 246.527 50.7041C246.911 51.0017 247.23 51.374 247.465 51.7982C247.825 52.4308 248.041 53.1341 248.097 53.8585C248.186 55.0019 248.014 55.6767 247.838 55.6973Z" fill="#263238"/>
<path d="M267.8 55.7283C267.624 55.8262 267.178 55.2596 266.493 54.4612C266.122 54.0163 265.683 53.6322 265.192 53.3229C264.671 52.9753 264.041 52.8271 263.419 52.9057C262.806 53.0472 262.259 53.388 261.863 53.8741C261.494 54.3178 261.199 54.8167 260.987 55.3523C260.598 56.3206 260.386 57.0005 260.183 56.9696C259.981 56.9387 259.862 56.2537 260.043 55.0845C260.161 54.3688 260.438 53.6881 260.852 53.0912C261.404 52.2927 262.246 51.7386 263.201 51.546C263.683 51.4757 264.174 51.5039 264.645 51.6288C265.116 51.7537 265.556 51.9726 265.939 52.2722C266.515 52.7108 266.988 53.27 267.323 53.9101C267.847 54.9763 267.956 55.6408 267.8 55.7283Z" fill="#263238"/>
<path d="M236.245 70.1963C239.501 74.1417 244.577 76.2947 249.674 76.9334C254.77 77.5721 265.861 78.5456 275.961 71.6539" fill="#3E6464"/>
<path d="M275.961 71.6542C275.856 71.753 275.739 71.8394 275.614 71.9117L274.577 72.5967C274.131 72.9109 273.54 73.2148 272.866 73.5908C272.192 73.9668 271.388 74.3222 270.512 74.7343C268.417 75.6252 266.237 76.3018 264.005 76.7533C261.275 77.2999 258.493 77.5537 255.709 77.5105C254.226 77.5105 252.779 77.392 251.385 77.2581C250.045 77.1358 248.714 76.938 247.398 76.6658C245.161 76.1884 243.012 75.3719 241.025 74.245C239.694 73.4853 238.473 72.5496 237.396 71.4636L236.877 70.9485L236.54 70.5468C236.443 70.4374 236.353 70.3222 236.271 70.2017C236.384 70.2931 236.488 70.3949 236.582 70.5055C236.68 70.6189 236.8 70.7476 236.934 70.8919L237.453 71.4069C238.555 72.456 239.789 73.3596 241.124 74.0956C243.101 75.1883 245.234 75.9768 247.449 76.434C248.759 76.7024 250.083 76.8933 251.416 77.0057C252.8 77.1396 254.236 77.2427 255.714 77.253C258.485 77.2969 261.253 77.0535 263.974 76.5267C266.185 76.0761 268.346 75.4137 270.429 74.5488C271.305 74.1522 272.119 73.8277 272.788 73.4466C273.457 73.0654 274.063 72.8028 274.514 72.504L275.582 71.8602C275.704 71.7835 275.83 71.7147 275.961 71.6542Z" fill="#263238"/>
<g opacity="0.3">
<path d="M257.166 48.6356C257.197 49.3927 255.885 50.0675 254.241 49.9439C252.598 49.8203 251.395 48.9755 251.54 48.2287C251.685 47.4818 252.971 47.0852 254.444 47.1986C255.916 47.3119 257.135 47.8733 257.166 48.6356Z" fill="white"/>
</g>
<path d="M265.306 32.5294C265.228 32.2616 264.881 32.1998 264.596 32.1998C263.492 32.2042 262.399 32.4175 261.376 32.8282C261.819 30.9404 262.146 29.0277 262.356 27.1006C261.179 27.1338 260.027 27.4421 258.993 28.0005C257.959 28.559 257.071 29.3518 256.404 30.3146C256.248 30.5412 256.03 30.8297 255.761 30.7473C255.491 30.6649 255.455 30.4691 255.382 30.2683L254.511 27.8526C252.686 27.6105 251.006 33.8222 254.35 39.3541L261.428 38.839C262.268 36.5882 264.404 35.2335 265.244 32.9621C265.313 32.8291 265.335 32.6765 265.306 32.5294Z" fill="#3E6464"/>
<path d="M161.998 203.692C154.993 203.007 155.205 198.809 155.656 195.636C156.108 192.463 157.813 189.641 159.286 186.777C160.758 183.913 161.36 179.705 161.36 177.578C161.36 173.89 161.324 170.97 157.637 168.945C156.315 168.219 153.847 168.472 151.529 170.491C150.394 171.474 149.761 175.209 150.16 179.036C150.793 185.093 147.387 187.21 147.107 192.113C146.827 197.017 147.138 201.75 150.549 205.304C153.961 208.858 159.462 210.553 164.103 208.848L161.998 203.692Z" fill="#3E6464"/>
<path d="M197.747 198.443C198.578 198.536 199.376 198.816 200.081 199.262C200.785 199.709 201.378 200.309 201.812 201.019C202.673 202.452 203.015 204.135 202.782 205.788C202.544 207.431 201.952 209.004 201.045 210.398C202.243 210.465 203.166 211.614 203.326 212.798C203.395 213.168 203.372 213.548 203.26 213.907C203.148 214.266 202.95 214.592 202.683 214.859C202.097 215.374 201.242 215.41 200.454 215.405C197.379 215.405 194.315 215.085 191.256 214.781L197.747 198.443Z" fill="#3E6464"/>
<g opacity="0.3">
<path d="M197.747 198.443C198.578 198.536 199.376 198.816 200.081 199.262C200.785 199.709 201.378 200.309 201.812 201.019C202.673 202.452 203.015 204.135 202.782 205.788C202.544 207.431 201.952 209.004 201.045 210.398C202.243 210.465 203.166 211.614 203.326 212.798C203.395 213.168 203.372 213.548 203.26 213.907C203.148 214.266 202.95 214.592 202.683 214.859C202.097 215.374 201.242 215.41 200.454 215.405C197.379 215.405 194.315 215.085 191.256 214.781L197.747 198.443Z" fill="black"/>
</g>
<path d="M199.712 186.277C200.552 194.48 200.315 202.756 199.007 210.898C199.691 211.287 200.286 211.813 200.754 212.443C200.983 212.765 201.128 213.138 201.176 213.529C201.224 213.92 201.174 214.317 201.029 214.684C200.625 215.544 199.598 215.956 198.644 215.987C197.69 216.018 196.721 215.915 195.761 215.915C194.693 215.915 192.889 215.987 191.883 215.714L191.276 207.74L199.712 186.277Z" fill="#3E6464"/>
<path d="M199.712 186.277L197.358 192.386L191.396 207.838V207.782C191.588 210.28 191.795 212.968 192.008 215.755L191.909 215.636C193.21 215.84 194.529 215.904 195.844 215.827C196.762 215.827 197.664 215.92 198.546 215.904C198.966 215.921 199.384 215.841 199.768 215.669C200.151 215.497 200.489 215.239 200.754 214.915C200.96 214.57 201.063 214.173 201.05 213.772C201.037 213.37 200.91 212.981 200.682 212.649C200.227 211.986 199.626 211.435 198.924 211.037L198.852 210.99V210.903C199.813 205.074 200.209 199.166 200.034 193.262C199.982 191.073 199.878 189.337 199.8 188.142C199.733 187.081 199.702 186.571 199.686 186.303C199.686 186.406 199.712 186.53 199.738 186.756C199.764 186.983 199.837 187.539 199.888 188.137C199.992 189.327 200.122 191.068 200.2 193.257C200.432 199.174 200.067 205.099 199.111 210.944L199.054 210.815C199.791 211.233 200.423 211.812 200.9 212.51C201.134 212.889 201.274 213.318 201.309 213.762C201.346 214.223 201.226 214.684 200.967 215.07C200.677 215.43 200.306 215.718 199.883 215.91C199.461 216.102 198.999 216.194 198.535 216.177C197.633 216.177 196.731 216.11 195.829 216.105C194.47 216.105 193.107 216.198 191.821 215.899H191.728V215.796C191.52 213.01 191.318 210.321 191.131 207.823V207.792V207.766C193.641 201.477 195.798 196.1 197.306 192.273C198.748 188.636 199.484 186.798 199.712 186.277Z" fill="#263238"/>
<path d="M196.944 172.355C196.944 172.407 200.023 176.522 200.573 186.092C200.941 192.628 190.888 214.478 190.888 214.478L176.562 215.94L165.306 212.072L166.913 188.534C170.428 182.26 173.555 176.172 173.311 171.851L196.944 172.355Z" fill="#3E6464"/>
<path d="M168.556 197.135C168.821 197.006 178.864 195.59 179.398 204.861C179.398 204.861 180.093 207.591 177.324 210.233C177.324 210.233 180.181 210.053 180.518 214.148C180.538 214.382 180.511 214.619 180.438 214.843C180.366 215.067 180.249 215.274 180.095 215.454C179.941 215.633 179.753 215.78 179.542 215.886C179.331 215.993 179.1 216.057 178.864 216.074C175.909 216.285 169.775 216.589 167.131 215.518C163.589 214.107 161.106 212.175 160.66 206.319C160.214 200.463 162.433 193.592 166.882 188.539C169.609 185.479 168.556 197.135 168.556 197.135Z" fill="#3E6464"/>
<path d="M190.411 192.082C190.411 192.747 190.799 208.884 191.811 210.357C192.822 211.83 195.881 210.486 194.045 215.94H185.117C185.117 215.94 183.644 215.806 181.773 210.357C179.901 204.908 178.558 198.783 178.558 198.783L179.776 186.092L190.411 192.082Z" fill="#3E6464"/>
<path d="M176.987 190.074C177.004 190.117 177.016 190.162 177.023 190.208C177.023 190.311 177.075 190.444 177.111 190.609C177.184 190.98 177.283 191.495 177.412 192.154C177.671 193.519 178.034 195.466 178.491 197.882C178.688 199.098 179.051 200.406 179.398 201.822C179.745 203.239 180.165 204.748 180.632 206.334C181.099 207.921 181.617 209.579 182.239 211.274C182.561 212.133 182.94 212.969 183.375 213.777C183.593 214.191 183.847 214.585 184.132 214.957C184.272 215.141 184.428 215.314 184.598 215.472C184.747 215.618 184.923 215.733 185.117 215.812H194.03L193.9 215.904C194.198 215.073 194.386 214.208 194.46 213.329C194.497 212.918 194.416 212.506 194.227 212.139C194.004 211.804 193.679 211.549 193.299 211.413C192.899 211.265 192.513 211.081 192.148 210.862C191.963 210.735 191.803 210.576 191.676 210.393C191.573 210.202 191.498 209.997 191.453 209.785C191.28 209.011 191.156 208.226 191.079 207.437C190.763 204.382 190.649 201.652 190.561 199.376C190.473 197.099 190.426 195.255 190.4 194.019C190.4 193.406 190.4 192.927 190.4 192.577V192.206C190.392 192.163 190.392 192.12 190.4 192.077C190.405 192.12 190.405 192.163 190.4 192.206C190.4 192.304 190.4 192.427 190.4 192.577C190.4 192.922 190.437 193.406 190.462 194.019C190.52 195.291 190.602 197.109 190.706 199.371C190.81 201.632 190.96 204.372 191.292 207.411C191.371 208.189 191.497 208.961 191.671 209.723C191.711 209.904 191.778 210.077 191.868 210.239C191.975 210.394 192.11 210.528 192.267 210.635C192.622 210.839 192.995 211.012 193.382 211.15C193.808 211.308 194.172 211.599 194.419 211.979C194.631 212.389 194.726 212.849 194.693 213.308C194.62 214.21 194.428 215.098 194.123 215.951L194.097 216.043H185.106C184.843 215.968 184.604 215.826 184.412 215.631C184.222 215.464 184.049 215.279 183.893 215.08C183.599 214.698 183.338 214.292 183.116 213.865C182.679 213.043 182.296 212.195 181.97 211.325C181.347 209.615 180.839 207.946 180.373 206.36C179.906 204.774 179.517 203.27 179.159 201.833C178.802 200.396 178.47 199.098 178.283 197.877C177.868 195.456 177.531 193.504 177.293 192.134C177.184 191.475 177.096 190.954 177.039 190.589L176.977 190.187C176.976 190.149 176.98 190.111 176.987 190.074Z" fill="#263238"/>
<path d="M160.795 202.152C160.795 202.245 160.787 202.339 160.769 202.43C160.769 202.61 160.717 202.878 160.686 203.234C160.587 204.263 160.609 205.3 160.753 206.324C160.85 207.802 161.175 209.256 161.717 210.635C162.068 211.469 162.559 212.237 163.169 212.907C163.862 213.635 164.678 214.236 165.58 214.684C166.536 215.214 167.57 215.591 168.644 215.801C169.805 215.997 170.978 216.107 172.155 216.131C173.363 216.172 174.607 216.157 175.883 216.131C176.515 216.131 177.158 216.079 177.806 216.038L178.781 215.976C179.091 215.983 179.399 215.916 179.678 215.781C179.951 215.632 180.172 215.405 180.313 215.129C180.455 214.854 180.51 214.542 180.471 214.236C180.458 213.597 180.339 212.966 180.119 212.366C179.908 211.788 179.527 211.287 179.025 210.929C178.535 210.591 177.952 210.411 177.355 210.414H177.018L177.251 210.182C177.993 209.487 178.576 208.642 178.962 207.704C179.32 206.828 179.429 205.872 179.279 204.939V204.861C179.175 203.794 178.898 202.75 178.459 201.771C178.256 201.319 178.02 200.882 177.754 200.463C177.487 200.075 177.187 199.712 176.857 199.376C175.742 198.235 174.288 197.479 172.709 197.218C172.404 197.149 172.094 197.101 171.781 197.073L170.952 197.032C170.713 197.017 170.474 197.017 170.236 197.032L169.64 197.079L168.826 197.135C168.733 197.143 168.639 197.143 168.546 197.135L168.821 197.089L169.635 196.996L170.236 196.934C170.476 196.919 170.717 196.919 170.957 196.934H171.797C172.112 196.959 172.426 197.003 172.735 197.068C174.35 197.314 175.841 198.071 176.987 199.226C177.328 199.568 177.639 199.938 177.915 200.334C178.19 200.762 178.436 201.207 178.651 201.668C179.107 202.669 179.396 203.737 179.507 204.83V204.861C179.678 205.843 179.568 206.853 179.19 207.777C178.794 208.75 178.193 209.628 177.428 210.352L177.329 210.12C177.988 210.118 178.632 210.319 179.17 210.697C179.716 211.08 180.132 211.619 180.362 212.242C180.597 212.869 180.725 213.531 180.741 214.199C180.781 214.558 180.713 214.92 180.545 215.239C180.377 215.558 180.116 215.821 179.797 215.992C179.485 216.147 179.14 216.226 178.791 216.224L177.811 216.285C177.163 216.322 176.52 216.352 175.877 216.373C174.602 216.419 173.352 216.43 172.134 216.373C170.945 216.344 169.76 216.228 168.587 216.028C167.496 215.804 166.447 215.413 165.477 214.869C164.554 214.406 163.722 213.783 163.019 213.03C162.395 212.34 161.896 211.547 161.546 210.687C161.008 209.287 160.696 207.811 160.623 206.314C160.496 205.288 160.496 204.25 160.623 203.223C160.665 202.873 160.712 202.6 160.748 202.425C160.757 202.333 160.773 202.242 160.795 202.152Z" fill="#263238"/>
<path d="M172.274 211.284C173.935 210.345 175.857 209.962 177.754 210.192C177.754 210.275 176.489 210.264 174.98 210.573C173.472 210.882 172.31 211.361 172.274 211.284Z" fill="#263238"/>
<g opacity="0.3">
<path d="M176.349 198.68C175.673 197.647 174.759 196.788 173.682 196.174C172.606 195.561 171.398 195.21 170.159 195.152C168.961 195.106 167.665 195.394 166.877 196.29C166.622 196.579 166.467 197.094 166.799 197.295C166.903 197.335 167.014 197.354 167.126 197.349C167.237 197.345 167.346 197.318 167.447 197.269C170.081 196.44 173.524 196.97 176.23 198.675" fill="black"/>
</g>
<g opacity="0.3">
<path d="M198.971 185.335C197.644 184.681 195.958 185.335 195.025 186.504C194.092 187.673 193.75 189.146 193.47 190.594C192.5 195.714 192.106 200.983 192.894 206.133C193.822 205.15 200.106 190.506 200.246 188.915C200.381 187.498 200.231 185.968 198.971 185.335Z" fill="white"/>
</g>
<path d="M191.562 208.611C191.667 208.341 191.795 208.081 191.945 207.833C192.21 207.344 192.583 206.628 193.039 205.773C193.947 204.001 195.15 201.529 196.373 198.747C197.597 195.966 198.623 193.422 199.334 191.562C199.671 190.666 199.946 189.919 200.158 189.352C200.239 189.076 200.345 188.807 200.474 188.549C200.422 188.834 200.35 189.114 200.257 189.389C200.096 189.904 199.847 190.686 199.52 191.629C198.852 193.509 197.861 196.079 196.627 198.84C195.393 201.601 194.165 204.089 193.21 205.84C192.733 206.715 192.334 207.416 192.039 207.9C191.901 208.15 191.741 208.388 191.562 208.611Z" fill="#263238"/>
<path d="M161.007 173.324C160.806 171.951 160.246 170.655 159.384 169.564C157.979 167.874 155.755 167.04 153.582 166.715C150.886 166.319 147.879 166.679 145.898 168.523C145.71 168.669 145.579 168.874 145.525 169.105C145.527 169.288 145.595 169.464 145.719 169.6C145.842 169.735 146.011 169.822 146.194 169.842C146.56 169.871 146.927 169.809 147.262 169.661C146.688 170.274 146.252 171.001 145.983 171.794C145.715 172.587 145.621 173.429 145.707 174.261C145.89 175.933 146.55 177.518 147.61 178.83C148.439 179.901 149.45 180.833 150.202 181.951C150.954 183.069 151.488 184.465 151.151 185.773L161.137 177.454C161.249 176.077 161.206 174.691 161.007 173.324Z" fill="#3E6464"/>
<path d="M193.807 132.443C193.595 132.295 193.338 132.225 193.081 132.247C192.436 132.252 191.804 132.42 191.243 132.734C190.681 133.049 190.209 133.5 189.871 134.045C189.773 132.848 189.479 131.676 189 130.573C188.906 130.265 188.696 130.005 188.414 129.847C187.963 129.661 187.476 130.006 187.149 130.362C185.552 132.139 185.158 134.781 185.801 137.058C186.519 139.351 187.938 141.365 189.861 142.821L191.728 143.048C191.432 139.955 192.1 136.846 193.641 134.142C193.973 133.602 194.284 132.844 193.807 132.443Z" fill="#3E6464"/>
<path d="M196.155 138.325C196.155 138.325 209.937 136.934 215.111 148.626L216.859 153.834C217.74 156.403 218.086 159.124 217.875 161.831C217.665 164.538 216.903 167.174 215.635 169.579C215.542 169.754 215.754 169.425 215.635 169.579C212.006 174.344 208.957 178.304 196.746 179.499C184.868 180.653 172.232 177.048 168.007 168.776C164.325 161.534 165.414 153.061 167.162 149.955C169.552 145.701 178.418 137.748 196.155 138.325Z" fill="#3E6464"/>
<path d="M196.155 138.464C196.155 138.464 202.222 132.025 203.414 130.691C206.65 127.086 210.958 123.295 213.623 126.679C215.697 129.337 214.318 148.152 214.318 148.152L202.647 141.925L196.155 138.464Z" fill="#3E6464"/>
<g opacity="0.3">
<path d="M198.675 139.236C198.675 139.236 210.357 125.757 211.835 126.73C213.312 127.704 211.902 143.414 211.902 143.414C211.902 143.414 201.745 144.016 198.675 139.236Z" fill="black"/>
</g>
<path d="M212.612 143.857C211.275 141.874 208.77 140.174 206.67 139.082C207.219 139.872 207.507 140.811 207.495 141.771C203.902 140.2 200.117 138.603 196.233 139.015L197.856 141.333L206.587 147.174L212.612 143.857Z" fill="#3E6464"/>
<path d="M197.452 138.932C197.522 138.909 197.596 138.898 197.67 138.902C197.876 138.88 198.084 138.87 198.292 138.871C199.06 138.866 199.826 138.928 200.583 139.056C203.108 139.48 205.522 140.403 207.681 141.771L207.464 141.884C207.464 141.837 207.464 141.786 207.464 141.734C207.428 141.267 207.309 140.81 207.111 140.385C206.93 139.952 206.722 139.545 206.541 139.123L206.401 138.804L206.717 138.938C208.536 139.703 210.154 140.873 211.446 142.358C211.825 142.791 212.16 143.26 212.446 143.759C212.559 143.934 212.65 144.123 212.716 144.32C212.293 143.675 211.826 143.061 211.316 142.481C210.005 141.064 208.401 139.945 206.613 139.2L206.795 139.01C206.971 139.411 207.184 139.829 207.37 140.272C207.59 140.731 207.718 141.227 207.749 141.734C207.749 141.791 207.749 141.848 207.749 141.904V142.152L207.536 142.018C205.403 140.675 203.036 139.74 200.557 139.262C199.812 139.115 199.056 139.022 198.297 138.984C198.014 138.985 197.732 138.968 197.452 138.932Z" fill="#263238"/>
<path opacity="0.3" d="M201.926 156.96C201.396 156.431 200.765 156.012 200.07 155.729C199.378 155.446 198.635 155.311 197.887 155.332L194.107 155.42C193.015 155.432 191.953 155.782 191.069 156.419C189.704 157.498 188.689 158.953 188.15 160.602C187.612 162.251 187.574 164.02 188.041 165.69C188.505 167.346 189.479 168.817 190.826 169.896C192.173 170.975 193.826 171.608 195.554 171.708C197.281 171.807 198.997 171.367 200.46 170.45C201.924 169.533 203.062 168.183 203.715 166.592C204.368 164.983 204.546 163.223 204.229 161.518C203.913 159.812 203.114 158.231 201.926 156.96Z" fill="white"/>
<path d="M193.553 156.96C194.345 156.581 195.206 156.365 196.085 156.325C196.963 156.285 197.841 156.422 198.665 156.728C199.183 156.841 199.702 157.619 199.36 158.047L197.224 160.596C197.124 160.713 196.986 160.789 196.834 160.811C196.682 160.833 196.527 160.799 196.399 160.715L192.806 158.325C192.282 157.99 192.816 157.197 193.553 156.96Z" fill="#263238"/>
<path d="M196.627 159.499C196.685 159.649 196.722 159.807 196.736 159.968C196.788 160.404 196.788 160.845 196.736 161.281C196.66 161.931 196.463 162.562 196.155 163.141C195.774 163.845 195.21 164.435 194.522 164.851C193.846 165.267 193.056 165.467 192.262 165.422C191.613 165.375 190.989 165.158 190.452 164.794C190.089 164.55 189.777 164.239 189.534 163.877C189.438 163.747 189.366 163.6 189.322 163.444C189.641 163.925 190.054 164.338 190.535 164.66C191.058 164.986 191.656 165.175 192.272 165.211C193.025 165.239 193.77 165.046 194.413 164.655C195.061 164.255 195.596 163.699 195.969 163.038C196.274 162.484 196.478 161.88 196.57 161.255C196.643 160.673 196.662 160.085 196.627 159.499Z" fill="#263238"/>
<path d="M203.492 162.111C203.441 162.251 203.374 162.384 203.29 162.507C203.088 162.858 202.86 163.192 202.605 163.506C202.232 163.986 201.734 164.355 201.164 164.573C200.808 164.683 200.434 164.722 200.063 164.687C199.692 164.653 199.331 164.545 199.002 164.372C198.331 164.035 197.774 163.51 197.4 162.863C197.095 162.335 196.876 161.763 196.752 161.168C196.665 160.771 196.609 160.368 196.586 159.963C196.565 159.814 196.565 159.663 196.586 159.515C196.627 159.515 196.658 160.148 196.907 161.132C197.046 161.701 197.27 162.246 197.571 162.749C197.931 163.357 198.461 163.849 199.095 164.166C199.712 164.491 200.431 164.565 201.102 164.372C201.643 164.174 202.122 163.839 202.491 163.398C203.139 162.626 203.456 162.064 203.492 162.111Z" fill="#263238"/>
<path d="M199.645 166.612C199.53 166.897 199.34 167.146 199.095 167.333C198.552 167.835 197.866 168.159 197.132 168.259C196.397 168.36 195.648 168.232 194.989 167.895C194.705 167.778 194.458 167.588 194.273 167.343C194.299 167.307 194.569 167.513 195.067 167.714C195.705 167.98 196.402 168.075 197.089 167.987C197.776 167.887 198.425 167.61 198.971 167.184C199.401 166.854 199.614 166.586 199.645 166.612Z" fill="#263238"/>
<path d="M167.1 153.03C167.1 153.03 164.289 132.942 166.55 130.454C168.811 127.967 181.565 140.297 181.565 140.297L169.189 149.187L167.1 153.03Z" fill="#3E6464"/>
<g opacity="0.3">
<path d="M169.526 147.781C169.526 147.781 166.68 132.803 168.074 132.298C169.469 131.794 179.056 140.931 179.056 140.931C179.056 140.931 174.229 148.204 169.526 147.781Z" fill="black"/>
</g>
<path d="M179.704 140.689C177.718 140.57 175.317 141.395 173.523 142.234C174.323 142.27 175.089 142.563 175.706 143.069C172.834 144.706 169.842 146.458 168.116 149.316L170.47 149.419L178.765 146.483L179.704 140.689Z" fill="#3E6464"/>
<path d="M168.909 148.719C168.923 148.66 168.948 148.604 168.982 148.554C169.039 148.451 169.111 148.291 169.236 148.101C169.576 147.565 169.973 147.066 170.418 146.612C171.889 145.136 173.641 143.964 175.571 143.166L175.623 143.14L175.597 143.352C175.025 142.879 174.345 142.552 173.617 142.399L173.337 142.342L173.575 142.182C174.875 141.317 176.38 140.805 177.941 140.699C178.389 140.66 178.841 140.66 179.289 140.699C179.452 140.708 179.614 140.736 179.771 140.781C179.771 140.823 179.087 140.714 177.957 140.828C176.431 140.979 174.969 141.511 173.705 142.373L173.663 142.157C174.427 142.312 175.14 142.654 175.737 143.151L175.893 143.279L175.706 143.362H175.66C173.756 144.153 172.016 145.286 170.527 146.705C169.93 147.328 169.389 148.002 168.909 148.719Z" fill="#263238"/>
<path d="M173.607 174.884C173.713 174.914 173.815 174.955 173.912 175.008L174.768 175.41C175.136 175.59 175.587 175.806 176.126 176.022C176.666 176.239 177.262 176.538 177.951 176.774L179.025 177.176C179.403 177.315 179.802 177.434 180.207 177.568C181.021 177.851 181.913 178.083 182.846 178.33C186.917 179.37 191.121 179.806 195.321 179.623C196.285 179.566 197.203 179.525 198.058 179.417C198.484 179.37 198.898 179.339 199.292 179.278L200.428 179.108C201.154 179.01 201.802 178.855 202.372 178.747C202.943 178.639 203.409 178.526 203.829 178.423L204.747 178.206C204.853 178.175 204.963 178.156 205.073 178.15C204.975 178.199 204.87 178.238 204.762 178.263L203.855 178.531C203.461 178.644 202.979 178.778 202.408 178.902C201.838 179.025 201.19 179.19 200.464 179.298L199.323 179.489C198.929 179.556 198.509 179.592 198.084 179.643C197.224 179.767 196.301 179.813 195.331 179.88C193.221 179.967 191.107 179.909 189.006 179.705C186.907 179.473 184.828 179.094 182.784 178.572C181.85 178.309 180.953 178.057 180.139 177.779C179.735 177.64 179.331 177.516 178.957 177.372L177.884 176.95C177.194 176.692 176.598 176.398 176.064 176.162C175.53 175.925 175.084 175.698 174.726 175.497L173.892 175.049C173.792 175.003 173.696 174.948 173.607 174.884Z" fill="#263238"/>
<g opacity="0.3">
<path d="M184.749 178.696C182.156 178.33 179.678 177.274 177.137 176.563C180.658 178.85 184.578 180.617 188.736 181.24C192.894 181.863 197.307 181.281 200.931 179.18C200.931 179.17 195.331 180.169 184.749 178.696Z" fill="black"/>
</g>
<path d="M167.535 154.75C166.901 156.151 165.885 157.349 164.603 158.207C163.32 159.065 161.822 159.55 160.276 159.607C161.11 161.296 162.58 162.592 164.367 163.213L161.22 163.97C164.331 167.673 171.543 172.51 175.976 174.271L167.535 154.75Z" fill="#3E6464"/>
<path d="M223.044 157.377C221.218 157.655 219.351 157.27 217.787 156.293C216.223 155.316 215.065 153.812 214.525 152.056L207.142 175.018C212.56 171.856 220.395 166.025 222.852 161.853L219.622 161.626C221.281 160.713 222.511 159.186 223.044 157.377Z" fill="#3E6464"/>
<path opacity="0.3" d="M184.479 162.626C184.479 163.476 183.307 164.171 181.887 164.171C180.466 164.171 179.294 163.486 179.294 162.626C179.294 161.766 180.466 161.081 181.887 161.081C183.307 161.081 184.479 161.766 184.479 162.626Z" fill="black"/>
<path opacity="0.3" d="M211.119 160.107C211.119 160.957 209.952 161.652 208.527 161.652C207.101 161.652 205.934 160.962 205.934 160.107C205.934 159.252 207.101 158.562 208.527 158.562C209.952 158.562 211.119 159.257 211.119 160.107Z" fill="black"/>
<path d="M205.551 148.935C206.517 148.684 207.538 148.726 208.48 149.058C209.422 149.389 210.243 149.993 210.835 150.793C211.428 151.592 211.765 152.55 211.804 153.542C211.842 154.534 211.581 155.515 211.052 156.357C210.523 157.2 209.752 157.865 208.839 158.268C207.925 158.67 206.911 158.791 205.927 158.615C204.944 158.438 204.036 157.973 203.322 157.278C202.608 156.584 202.12 155.692 201.921 154.719C201.777 154.103 201.756 153.464 201.86 152.839C201.964 152.215 202.192 151.617 202.529 151.08C202.866 150.542 203.306 150.076 203.825 149.708C204.343 149.34 204.93 149.078 205.551 148.935Z" fill="white"/>
<path d="M205.504 148.719C208.049 148.204 210.502 149.661 210.974 151.969C211.446 154.276 209.766 156.568 207.215 157.083C204.664 157.599 202.222 156.146 201.75 153.833C201.278 151.521 202.958 149.234 205.504 148.719Z" fill="#263238"/>
<path d="M187.212 151.675C188.013 152.225 188.631 152.999 188.986 153.9C189.341 154.801 189.416 155.786 189.203 156.73C188.99 157.674 188.498 158.533 187.79 159.197C187.082 159.861 186.19 160.299 185.23 160.456C184.269 160.613 183.283 160.481 182.398 160.077C181.513 159.673 180.77 159.016 180.264 158.189C179.759 157.363 179.513 156.405 179.559 155.439C179.605 154.473 179.941 153.542 180.523 152.767C181.265 151.742 182.386 151.051 183.64 150.846C184.894 150.642 186.179 150.94 187.212 151.675Z" fill="white"/>
<path d="M187.476 151.325C189.55 152.87 190.1 155.651 188.684 157.542C187.269 159.432 184.427 159.71 182.343 158.17C180.259 156.63 179.719 153.844 181.135 151.953C182.55 150.063 185.392 149.78 187.476 151.325Z" fill="#263238"/>
<path d="M66.6062 176.017C62.6086 178.417 57.1542 177.645 53.4988 174.755C49.8435 171.866 47.8836 167.209 47.5829 162.579C47.2822 157.948 48.5006 153.333 50.2842 149.043C51.8397 145.36 53.7684 141.832 55.0698 138.077C56.3713 134.322 56.9831 130.14 55.7543 126.344C54.5254 122.548 51.4819 119.432 47.9251 117.521C39.4478 112.983 28.29 115.136 21.0986 121.502C13.9072 127.868 10.5629 137.274 10.5629 147.292C10.5629 156.856 13.9642 166.159 18.5061 174.59L20.3157 167.838C20.1533 171 20.6982 174.159 21.9112 177.087C23.1241 180.015 24.975 182.64 27.3308 184.773C27.7318 182.933 28.1345 181.096 28.5389 179.262C33.1922 186.649 40.5616 191.943 49.0815 194.019C57.6013 196.094 66.6 194.788 74.1657 190.377L66.6062 176.017Z" fill="#3E6464"/>
<g opacity="0.3">
<path d="M55.9047 126.349C54.6655 122.527 51.6271 119.437 48.0703 117.526C39.5931 112.988 28.3678 114.951 21.1712 121.307C16.5578 125.505 13.3086 130.975 11.8385 137.016C11.1154 140.125 10.6917 143.295 10.5733 146.483C10.4385 149.229 13.0258 150.717 15.7582 149.944C18.0344 149.29 19.7195 147.431 21.2801 145.649C21.7685 149.296 22.8085 152.849 24.3651 156.187C24.6036 156.702 24.9251 157.269 25.4798 157.408C26.2005 157.588 26.8538 156.965 27.3101 156.378C28.8587 154.404 30.1658 152.255 31.2039 149.975C33.4594 155.425 41.9003 159.221 47.4326 161.348C47.4326 161.348 47.7489 153.849 50.2117 149.568C51.7671 145.886 53.9292 141.842 55.2306 138.082C56.532 134.322 57.1283 130.145 55.9047 126.349Z" fill="white"/>
</g>
<path d="M127.917 175.028C129.506 175.207 131.033 175.745 132.381 176.6C133.729 177.455 134.863 178.605 135.695 179.963C137.344 182.717 138 185.946 137.556 189.12C137.102 192.277 135.962 195.298 134.217 197.975C136.519 198.103 138.292 200.308 138.603 202.579C138.795 204.006 138.468 205.603 137.374 206.55C136.28 207.498 134.595 207.611 133.092 207.606C127.186 207.575 121.301 206.988 115.427 206.406L127.917 175.028Z" fill="#3E6464"/>
<g opacity="0.3">
<path d="M127.917 175.028C129.506 175.207 131.033 175.745 132.381 176.6C133.729 177.455 134.863 178.605 135.695 179.963C137.344 182.717 138 185.946 137.556 189.12C137.102 192.277 135.962 195.298 134.217 197.975C136.519 198.103 138.292 200.308 138.603 202.579C138.795 204.006 138.468 205.603 137.374 206.55C136.28 207.498 134.595 207.611 133.092 207.606C127.186 207.575 121.301 206.988 115.427 206.406L127.917 175.028Z" fill="black"/>
</g>
<path d="M131.645 151.67C133.123 167.416 132.936 183.352 130.292 198.943C131.612 199.698 132.756 200.723 133.647 201.951C134.476 203.218 134.813 204.887 134.165 206.257C133.392 207.91 131.422 208.703 129.587 208.76C127.751 208.817 125.895 208.621 124.06 208.621C121.986 208.621 118.543 208.765 116.604 208.24L115.442 192.922L131.645 151.67Z" fill="#3E6464"/>
<path d="M131.645 151.67L115.572 192.973V192.917C115.94 197.707 116.334 202.873 116.744 208.23L116.64 208.106C117.856 208.368 119.098 208.496 120.342 208.487C121.618 208.518 122.935 208.487 124.231 208.487C125.988 208.487 127.72 208.662 129.416 208.626C130.253 208.62 131.082 208.456 131.858 208.142C132.621 207.844 133.281 207.335 133.761 206.674C134.21 206.011 134.416 205.215 134.346 204.418C134.287 203.629 134.04 202.864 133.626 202.188C132.741 200.899 131.572 199.826 130.209 199.051L130.136 199.005V198.917C131.978 187.72 132.724 176.371 132.366 165.031C132.247 160.828 132.039 157.49 131.847 155.198C131.692 153.004 131.614 151.964 131.593 151.67C131.593 151.799 131.63 152.041 131.681 152.556C131.733 153.071 131.847 154.05 131.935 155.193C132.127 157.48 132.366 160.823 132.506 165.026C132.919 176.381 132.203 187.748 130.37 198.964L130.313 198.83C131.711 199.626 132.909 200.726 133.818 202.049C134.255 202.763 134.516 203.569 134.58 204.403C134.651 205.26 134.426 206.116 133.942 206.829C133.432 207.527 132.73 208.064 131.92 208.374C131.114 208.705 130.251 208.879 129.379 208.889C127.658 208.93 125.926 208.76 124.194 208.75C122.888 208.75 121.602 208.786 120.301 208.75C119.033 208.757 117.769 208.624 116.531 208.353H116.438V208.255C116.033 202.899 115.645 197.733 115.282 192.937V192.906L131.645 151.67Z" fill="#263238"/>
<path d="M126.372 124.938C126.372 124.938 135.378 131.144 133.32 151.32C131.261 171.495 114.722 205.814 114.722 205.814L87.2003 208.621L65.6053 201.214L68.7162 156.017C75.4565 143.98 81.4762 132.324 81.0043 123.995L126.372 124.938Z" fill="#3E6464"/>
<path d="M71.8636 172.535C72.3821 172.283 91.6595 169.584 92.6809 187.359C92.6809 187.359 94.0186 192.602 88.7456 197.66C88.7456 197.66 94.2208 197.31 94.8689 205.175C94.9078 205.626 94.8562 206.079 94.717 206.51C94.5778 206.94 94.3537 207.339 94.058 207.683C93.7622 208.026 93.4006 208.308 92.9941 208.512C92.5877 208.715 92.1446 208.836 91.6906 208.868C86.0183 209.275 74.2435 209.816 69.1727 207.802C62.3649 205.098 57.6 201.384 56.729 190.14C55.8579 178.896 60.1354 165.706 68.6853 156.002C73.8909 150.14 71.8636 172.535 71.8636 172.535Z" fill="#3E6464"/>
<path d="M113.825 162.816C113.825 164.093 114.571 195.075 116.521 197.897C118.47 200.72 124.324 198.155 120.809 208.621H103.668C103.668 208.621 100.837 208.369 97.2384 197.897C93.6401 187.426 91.0736 175.682 91.0736 175.682L93.412 151.32L113.825 162.816Z" fill="#3E6464"/>
<path d="M88.0508 158.963C88.0508 158.963 88.0767 159.046 88.113 159.221C88.1493 159.396 88.2011 159.659 88.2634 159.988C88.393 160.679 88.5848 161.673 88.8233 162.955C89.3055 165.531 89.9951 169.296 90.8558 173.952C90.9595 174.534 91.0736 175.131 91.1824 175.744C91.2913 176.357 91.4676 176.965 91.6128 177.599C91.9135 178.862 92.2367 180.174 92.5824 181.534C93.2719 184.248 94.0497 187.153 94.9415 190.197C95.8333 193.241 96.8288 196.435 98.0265 199.69C98.6467 201.345 99.3741 202.959 100.204 204.521C100.63 205.317 101.121 206.077 101.671 206.793C101.807 206.972 101.952 207.144 102.107 207.308C102.255 207.479 102.415 207.641 102.584 207.792C102.892 208.099 103.266 208.333 103.678 208.477H120.788L120.653 208.57C121.239 206.972 121.605 205.304 121.742 203.61C121.813 202.799 121.651 201.984 121.275 201.261C120.838 200.593 120.194 200.085 119.44 199.813C118.673 199.543 117.935 199.198 117.236 198.783C116.891 198.557 116.596 198.262 116.371 197.918C116.265 197.741 116.182 197.553 116.122 197.357C116.05 197.171 115.993 196.979 115.951 196.785C115.618 195.304 115.379 193.804 115.235 192.293C114.618 186.432 114.39 181.194 114.198 176.841C114.006 172.489 113.908 168.971 113.856 166.54C113.856 165.345 113.814 164.413 113.804 163.774V163.058C113.799 162.976 113.799 162.893 113.804 162.811V163.058L113.83 163.774C113.83 164.413 113.882 165.319 113.923 166.54C114.011 168.945 114.136 172.448 114.348 176.816C114.561 181.183 114.825 186.422 115.458 192.268C115.602 193.767 115.843 195.255 116.179 196.723C116.221 196.908 116.275 197.09 116.339 197.269C116.396 197.448 116.473 197.621 116.568 197.784C116.776 198.101 117.048 198.373 117.366 198.582C118.054 198.983 118.778 199.319 119.528 199.587C120.332 199.878 121.02 200.42 121.488 201.132C121.893 201.896 122.073 202.759 122.006 203.62C121.873 205.34 121.505 207.035 120.912 208.657L120.881 208.755H103.652C103.177 208.611 102.745 208.35 102.397 207.998C102.214 207.837 102.04 207.665 101.879 207.483C101.721 207.319 101.572 207.147 101.433 206.968C100.874 206.239 100.376 205.465 99.9449 204.655C99.1089 203.082 98.378 201.456 97.7569 199.788C96.5591 196.512 95.5792 193.318 94.6822 190.269C93.7852 187.22 93.0282 184.31 92.349 181.59C92.0068 180.231 91.6906 178.912 91.395 177.65C91.2498 177.017 91.1098 176.393 90.975 175.791C90.8402 175.188 90.7573 174.58 90.6484 173.993C89.8292 169.332 89.1655 165.577 88.7041 162.981C88.4863 161.693 88.31 160.694 88.1856 160.004C88.1337 159.669 88.0923 159.417 88.0611 159.231C88.03 159.046 88.0508 158.963 88.0508 158.963Z" fill="#263238"/>
<path d="M71.8636 172.535C71.9085 172.519 71.9558 172.51 72.0035 172.509L72.4028 172.448C72.7605 172.406 73.2842 172.309 73.9582 172.257C75.9519 172.069 77.9618 172.142 79.9364 172.473C81.3396 172.727 82.7029 173.163 83.991 173.771C85.5065 174.487 86.88 175.467 88.0455 176.666C88.6844 177.328 89.2654 178.044 89.7825 178.804C90.3154 179.614 90.7835 180.465 91.1824 181.348C92.0433 183.249 92.5912 185.275 92.8052 187.349C92.9817 188.257 93.0132 189.186 92.8986 190.104C92.7906 191.054 92.557 191.986 92.2038 192.875C91.4497 194.733 90.3041 196.408 88.844 197.789L88.7403 197.557C89.6574 197.551 90.5634 197.757 91.3868 198.158C92.2101 198.559 92.9283 199.145 93.4845 199.87C94.6199 201.343 95.0399 203.249 95.1436 205.098C95.2017 205.549 95.1842 206.007 95.0918 206.452C94.9365 207.123 94.575 207.728 94.0575 208.185C93.5399 208.642 92.8921 208.928 92.2038 209.002C90.4617 209.141 88.7559 209.234 87.0708 209.306C83.7058 209.445 80.4549 209.471 77.3595 209.306C74.2641 209.141 71.2984 208.837 68.7215 207.761C66.3163 206.854 64.096 205.523 62.1678 203.831C60.6084 202.391 59.3794 200.634 58.5644 198.68C57.9658 197.213 57.5177 195.689 57.2267 194.132C57.0089 192.85 56.8741 191.845 56.8274 191.165C56.8274 190.83 56.7808 190.573 56.7652 190.387C56.7497 190.202 56.7652 190.125 56.7652 190.125C56.7835 190.212 56.7974 190.299 56.8067 190.387C56.8326 190.573 56.8585 190.825 56.9 191.155C56.9622 191.84 57.1126 192.834 57.3459 194.111C57.658 195.654 58.1181 197.163 58.7199 198.618C59.5464 200.535 60.7708 202.257 62.313 203.671C64.2357 205.324 66.4391 206.623 68.82 207.508C71.3503 208.538 74.316 208.822 77.3854 209.007C80.4549 209.193 83.711 209.126 87.0708 208.981C88.7455 208.909 90.4617 208.817 92.1831 208.678C92.8141 208.608 93.408 208.346 93.8826 207.927C94.3573 207.509 94.6892 206.954 94.8325 206.339C94.9168 205.918 94.9308 205.487 94.874 205.062C94.7755 203.244 94.3555 201.394 93.2771 199.983C92.7482 199.294 92.0655 198.736 91.2828 198.354C90.5 197.971 89.6386 197.774 88.7662 197.779H88.424L88.6677 197.547C90.0986 196.191 91.2243 194.55 91.9705 192.731C92.3161 191.862 92.5445 190.951 92.6497 190.022C92.7663 189.136 92.7418 188.237 92.5771 187.359C92.1416 183.11 90.3891 179.319 87.9418 176.8C86.7844 175.626 85.4277 174.663 83.9339 173.957C82.6662 173.343 81.3245 172.893 79.9416 172.618C77.9792 172.274 75.9807 172.181 73.9945 172.339C73.3049 172.376 72.7761 172.463 72.4391 172.489L72.0347 172.53C71.978 172.539 71.9206 172.54 71.8636 172.535Z" fill="#263238"/>
<path d="M79.0083 199.71C79.4562 199.426 79.9366 199.196 80.4393 199.025C82.8297 198.084 85.3711 197.578 87.9418 197.531C88.4719 197.498 89.0042 197.524 89.5284 197.609C89.0043 197.681 88.4761 197.721 87.947 197.727C86.6812 197.809 85.422 197.972 84.1776 198.217C82.9339 198.47 81.7078 198.802 80.5067 199.211C80.0179 199.407 79.5175 199.574 79.0083 199.71Z" fill="#263238"/>
<g opacity="0.3">
<path d="M86.827 175.471C85.5286 173.488 83.7736 171.84 81.7072 170.664C79.6408 169.488 77.3222 168.818 74.9433 168.708C72.6412 168.621 70.1525 169.172 68.6437 170.892C68.1563 171.448 67.8608 172.437 68.4933 172.819C68.6913 172.898 68.9039 172.936 69.1173 172.929C69.3308 172.922 69.5404 172.87 69.7325 172.777C74.793 171.186 81.4037 172.206 86.5989 175.471" fill="black"/>
</g>
<g opacity="0.3">
<path d="M99.4938 134.812C95.32 134.23 91.3795 132.54 87.325 131.407C92.9505 135.064 99.219 137.887 105.866 138.881C112.513 139.875 119.564 138.948 125.361 135.574C125.361 135.584 116.402 137.181 99.4938 134.812Z" fill="black"/>
</g>
<path d="M138.593 145.911C138.012 140.271 135.793 135.327 132.101 133.148L121.592 173.37C128.068 167.74 132.07 160.962 134.507 152.767C134.618 153.803 134.91 154.812 135.368 155.749C136.846 151.325 137.177 145.963 135.923 142.97C136.815 143.949 137.701 144.933 138.593 145.911Z" fill="#3E6464"/>
<path d="M59.985 157.475L64.5995 157.294C61.5366 159.533 58.7945 162.176 56.4489 165.149L61.5405 163.156C56.1586 168.605 54.4579 181.075 57.7503 187.967L75.4826 143.568C71.9246 149.713 66.4995 154.581 59.985 157.475Z" fill="#3E6464"/>
<path d="M75.4825 143.568C76.8195 141.269 77.8644 138.814 78.5935 136.259L75.4825 143.568Z" fill="#3E6464"/>
<path d="M116.033 194.56C116.088 194.416 116.156 194.278 116.236 194.148L116.868 192.989C117.148 192.474 117.485 191.876 117.859 191.155C118.232 190.434 118.683 189.61 119.144 188.708C121.016 185.072 123.484 179.983 125.994 174.286C128.503 168.59 130.624 163.331 132.086 159.509C132.807 157.598 133.366 156.038 133.75 154.961C133.932 154.446 134.077 154.024 134.186 153.72C134.232 153.572 134.288 153.428 134.352 153.287C134.327 153.439 134.289 153.589 134.238 153.735L133.854 154.997C133.501 156.084 132.967 157.655 132.267 159.576C130.857 163.419 128.778 168.683 126.248 174.4C123.717 180.117 121.239 185.216 119.316 188.822C118.849 189.733 118.387 190.542 117.999 191.253C117.61 191.964 117.257 192.577 116.962 193.066C116.666 193.555 116.443 193.921 116.288 194.199C116.212 194.325 116.127 194.446 116.033 194.56Z" fill="#263238"/>
<path d="M121.307 165.433C121.307 165.433 121.244 165.371 121.141 165.242C121.037 165.113 120.887 164.912 120.71 164.65C120.201 163.896 119.755 163.102 119.378 162.275C118.08 159.45 117.544 156.339 117.822 153.246L118.025 153.38C117.212 153.947 116.51 154.656 115.951 155.471C115.617 155.912 115.238 156.318 114.82 156.682C114.4 157.032 113.919 157.303 113.4 157.48C112.882 157.652 112.321 157.652 111.803 157.48C111.31 157.296 110.9 156.944 110.647 156.486C110.243 155.659 109.997 154.765 109.921 153.849C109.819 153.063 109.779 152.271 109.801 151.479C109.834 150.336 109.999 149.201 110.294 148.095C110.37 147.795 110.464 147.499 110.574 147.209C110.604 147.104 110.646 147.002 110.698 146.906C110.688 147.015 110.663 147.122 110.626 147.225C110.569 147.426 110.491 147.74 110.398 148.121C110.145 149.225 110.012 150.352 109.998 151.484C109.993 152.265 110.043 153.044 110.149 153.818C110.233 154.7 110.477 155.561 110.87 156.357C111.098 156.763 111.466 157.074 111.907 157.233C112.368 157.379 112.866 157.37 113.322 157.207C113.809 157.04 114.261 156.785 114.654 156.455C115.056 156.1 115.422 155.709 115.748 155.286C116.332 154.439 117.068 153.707 117.921 153.128L118.149 152.994V153.256C117.869 156.307 118.366 159.378 119.596 162.188C119.957 163.013 120.374 163.813 120.845 164.583C121.125 165.134 121.322 165.422 121.307 165.433Z" fill="#263238"/>
<path d="M113.97 52.8797C113.631 52.6436 113.221 52.5325 112.808 52.5655C111.779 52.5746 110.768 52.843 109.871 53.3456C108.975 53.8483 108.221 54.5687 107.681 55.4395C107.524 53.5261 107.054 51.6508 106.291 49.8871C106.139 49.396 105.803 48.9814 105.353 48.7282C104.632 48.4295 103.854 48.9857 103.331 49.5626C100.78 52.3955 100.147 56.6294 101.174 60.2915C102.2 63.9536 104.71 67.0853 107.696 69.4649L110.683 69.8306C110.206 64.8856 111.274 59.9147 113.742 55.5941C114.234 54.7339 114.732 53.5183 113.97 52.8797Z" fill="#3E6464"/>
<path d="M117.724 70.2943C117.724 70.2943 139.759 68.0692 148.029 86.7456L150.819 95.064C152.227 99.1734 152.779 103.524 152.442 107.852C152.105 112.18 150.886 116.395 148.859 120.241C148.714 120.519 149.056 119.988 148.859 120.241C143.057 127.858 138.194 134.183 118.667 136.099C99.6804 137.959 79.449 132.18 72.7294 118.968C66.8446 107.395 68.5815 93.8535 71.3761 88.8831C75.2026 82.0842 89.3676 69.3981 117.724 70.2943Z" fill="#3E6464"/>
<path d="M117.724 70.5154C117.724 70.5154 127.425 60.214 129.338 58.0868C134.523 52.3129 141.398 46.266 145.655 51.6742C148.999 55.9235 146.769 86.0035 146.769 86.0035L128.104 76.0472L117.724 70.5154Z" fill="#3E6464"/>
<g opacity="0.3">
<path d="M121.783 71.7518C121.783 71.7518 140.449 50.2065 142.818 51.7568C145.188 53.3072 142.927 78.4271 142.927 78.4271C142.927 78.4271 126.662 79.3903 121.783 71.7518Z" fill="black"/>
</g>
<path d="M144.032 79.138C141.89 75.9703 137.888 73.2508 134.538 71.5047C135.414 72.7648 135.872 74.2644 135.85 75.7952C130.11 73.292 124.06 70.7372 117.853 71.3914L120.446 75.0999L134.383 84.402L144.032 79.138Z" fill="#3E6464"/>
<path d="M119.798 71.2883C119.91 71.253 120.027 71.2356 120.145 71.2368C120.476 71.201 120.808 71.1838 121.141 71.1853C122.369 71.179 123.596 71.2807 124.806 71.4892C128.843 72.1641 132.703 73.6371 136.156 75.8209L135.798 76.0012C135.798 75.9291 135.798 75.8518 135.798 75.7694C135.743 75.0226 135.553 74.2917 135.238 73.6113C134.948 72.9211 134.611 72.2669 134.326 71.5973L134.103 71.0823L134.621 71.2986C137.519 72.5276 140.098 74.3966 142.16 76.7635C142.764 77.4567 143.3 78.2052 143.762 78.9989C143.941 79.2797 144.085 79.5805 144.193 79.8951C143.513 78.8679 142.764 77.8871 141.953 76.9592C139.855 74.6975 137.293 72.9094 134.44 71.7158L134.725 71.4119C135.005 72.0558 135.347 72.7202 135.648 73.431C135.994 74.1642 136.198 74.9558 136.249 75.7642C136.249 75.857 136.249 75.9497 136.249 76.0372V76.439L135.907 76.2175C132.498 74.069 128.713 72.5752 124.749 71.8137C123.551 71.5803 122.339 71.4306 121.12 71.3656C120.678 71.3709 120.236 71.3451 119.798 71.2883Z" fill="#263238"/>
<path opacity="0.3" d="M126.953 100.06C126.105 99.2123 125.095 98.5416 123.982 98.0874C122.877 97.6348 121.687 97.4206 120.493 97.459L114.452 97.598C112.707 97.6181 111.011 98.1761 109.599 99.1948C105.208 102.465 103.18 108.708 104.751 114.034C106.322 119.36 111.362 123.403 116.78 123.707C122.198 124.011 127.627 120.57 129.815 115.466C130.857 112.893 131.142 110.078 130.635 107.35C130.128 104.623 128.851 102.094 126.953 100.06Z" fill="white"/>
<path d="M113.566 100.086C116.516 98.8546 118.579 98.731 121.732 99.7148C122.587 99.8951 123.422 101.136 122.852 101.816L119.43 105.89C119.274 106.08 119.053 106.205 118.809 106.241C118.566 106.277 118.317 106.222 118.113 106.086L112.368 102.264C111.533 101.708 112.389 100.456 113.566 100.086Z" fill="#263238"/>
<path d="M118.476 104.139C118.574 104.377 118.634 104.629 118.652 104.886C118.741 105.584 118.741 106.29 118.652 106.987C118.538 108.028 118.225 109.037 117.729 109.959C117.123 111.083 116.229 112.026 115.137 112.694C114.05 113.361 112.783 113.68 111.507 113.606C110.473 113.529 109.478 113.185 108.619 112.607C108.038 112.215 107.54 111.715 107.152 111.134C106.995 110.929 106.879 110.697 106.81 110.449C107.324 111.216 107.984 111.876 108.754 112.391C109.589 112.912 110.543 113.215 111.528 113.271C112.732 113.317 113.923 113.007 114.95 112.38C115.991 111.749 116.852 110.862 117.449 109.805C117.937 108.921 118.263 107.959 118.413 106.962C118.525 106.025 118.546 105.08 118.476 104.139Z" fill="#263238"/>
<path d="M129.452 108.285C129.372 108.511 129.264 108.725 129.131 108.924C128.81 109.483 128.444 110.015 128.037 110.516C127.445 111.289 126.645 111.88 125.729 112.221C125.161 112.398 124.562 112.462 123.969 112.408C123.375 112.354 122.798 112.183 122.271 111.906C121.201 111.365 120.312 110.526 119.715 109.491C119.23 108.648 118.881 107.736 118.678 106.787C118.54 106.15 118.45 105.505 118.408 104.855C118.371 104.618 118.371 104.376 118.408 104.139C118.471 104.139 118.517 105.169 118.927 106.715C119.156 107.62 119.515 108.487 119.995 109.29C120.574 110.258 121.42 111.043 122.432 111.551C123.416 112.071 124.566 112.188 125.636 111.875C126.502 111.567 127.268 111.033 127.855 110.33C128.892 109.135 129.39 108.244 129.452 108.285Z" fill="#263238"/>
<path d="M123.303 115.512C123.117 115.968 122.813 116.366 122.421 116.666C121.547 117.464 120.45 117.979 119.274 118.144C118.102 118.298 116.91 118.094 115.857 117.557C115.403 117.373 115.007 117.07 114.711 116.681C114.753 116.62 115.194 116.949 115.982 117.274C117.003 117.698 118.119 117.848 119.217 117.706C120.316 117.544 121.354 117.102 122.229 116.424C122.909 115.904 123.251 115.466 123.303 115.512Z" fill="#263238"/>
<path d="M71.2777 93.7966C71.2777 93.7966 66.7824 61.7232 70.3963 57.716C74.0101 53.7088 94.3711 73.4514 94.3711 73.4514L74.5908 87.6621L71.2777 93.7966Z" fill="#3E6464"/>
<g opacity="0.3">
<path d="M75.1612 85.4116C75.1612 85.4116 70.6089 61.4661 72.8384 60.642C75.0679 59.8179 90.3944 74.4355 90.3944 74.4355C90.3944 74.4355 82.6793 86.0555 75.1612 85.4116Z" fill="black"/>
</g>
<path d="M91.4262 74.0746C88.2479 73.884 84.4111 75.2026 81.5439 76.583C82.8218 76.6405 84.0463 77.1086 85.0333 77.917C80.4447 80.5284 75.659 83.3304 72.9059 87.9042L76.6649 88.069L89.9382 83.3767L91.4262 74.0746Z" fill="#3E6464"/>
<path d="M74.1709 86.9103C74.1928 86.815 74.2315 86.7244 74.285 86.6424C74.4087 86.3951 74.5454 86.1544 74.6946 85.9213C75.2386 85.0635 75.8711 84.2642 76.5819 83.5366C78.9358 81.1771 81.738 79.3056 84.8258 78.0305L84.9036 77.9944L84.8569 78.3292C83.9467 77.5665 82.8628 77.0361 81.6993 76.784L81.2431 76.6913L81.6267 76.4389C83.7026 75.0528 86.11 74.2355 88.6056 74.0696C89.326 74.0202 90.0493 74.0322 90.7677 74.1057C91.027 74.1166 91.2835 74.1634 91.5298 74.2447C91.5298 74.3065 90.441 74.1366 88.6315 74.3117C86.1962 74.553 83.8599 75.3939 81.8341 76.7583L81.7667 76.408C82.9939 76.658 84.1394 77.2067 85.1006 78.0047L85.3547 78.2108L85.0539 78.3395L84.9762 78.3756C81.9341 79.6388 79.1533 81.4496 76.7737 83.7168C75.8131 84.703 74.9421 85.7717 74.1709 86.9103Z" fill="#263238"/>
<path d="M81.6787 128.734C81.6787 128.734 81.7254 128.734 81.8083 128.78L82.1661 128.945L83.5245 129.599L84.4993 130.078C84.8622 130.248 85.2615 130.413 85.6866 130.593C86.5421 130.959 87.5013 131.412 88.6057 131.804L90.3219 132.453C90.9181 132.679 91.5611 132.865 92.2092 133.086C93.5106 133.539 94.9364 133.905 96.4297 134.317C102.945 135.98 109.672 136.674 116.391 136.378C117.947 136.28 119.404 136.218 120.773 136.038C121.457 135.96 122.121 135.909 122.753 135.811L124.568 135.528C125.729 135.373 126.761 135.121 127.679 134.946C128.135 134.848 128.56 134.77 128.949 134.683L129.986 134.415L131.448 134.049L131.832 133.962C131.877 133.957 131.922 133.957 131.967 133.962L131.842 134.008L131.464 134.127L130.012 134.539L128.975 134.827C128.586 134.925 128.161 135.013 127.705 135.116C126.792 135.311 125.766 135.569 124.594 135.739L122.774 136.043C122.141 136.146 121.478 136.202 120.793 136.285C119.425 136.475 117.947 136.547 116.397 136.65C109.649 136.972 102.891 136.269 96.3571 134.564C94.8638 134.147 93.4328 133.771 92.1314 133.308C91.4781 133.081 90.8404 132.89 90.2441 132.659L88.5279 131.989C87.4235 131.587 86.454 131.119 85.6192 130.743C85.194 130.547 84.7948 130.377 84.4371 130.202L83.4675 129.687L82.1298 128.986L81.7876 128.796L81.6787 128.734Z" fill="#263238"/>
<path d="M69.3748 97.835C68.3559 100.075 66.7282 101.988 64.6746 103.359C62.621 104.731 60.223 105.506 57.7504 105.597C59.0795 108.304 61.4284 110.382 64.2885 111.381L59.2592 112.597C64.2522 118.515 75.7626 126.246 82.8503 129.038L69.3748 97.835Z" fill="#3E6464"/>
<path d="M164.014 102.301C159.135 103.011 152.53 100.704 150.394 93.7969L138.593 130.506C147.257 125.448 159.773 116.12 163.703 109.455L158.518 109.089C161.181 107.636 163.156 105.196 164.014 102.301Z" fill="#3E6464"/>
<path opacity="0.3" d="M94.8843 111.577C97.1923 111.577 99.0633 110.477 99.0633 109.12C99.0633 107.763 97.1923 106.663 94.8843 106.663C92.5763 106.663 90.7053 107.763 90.7053 109.12C90.7053 110.477 92.5763 111.577 94.8843 111.577Z" fill="black"/>
<path opacity="0.3" d="M137.499 107.57C139.807 107.57 141.678 106.47 141.678 105.113C141.678 103.756 139.807 102.656 137.499 102.656C135.191 102.656 133.32 103.756 133.32 105.113C133.32 106.47 135.191 107.57 137.499 107.57Z" fill="black"/>
<path d="M102.563 64.8088C101.601 64.1114 100.414 63.7922 99.2294 63.9126C98.1924 64.1289 97.5339 65.1488 97.2591 66.1583C96.554 68.7336 97.7776 71.5253 99.4212 73.6525C100.199 74.6415 101.174 75.5944 102.418 75.7849C103.823 75.991 105.213 75.1256 106.047 73.9719C106.882 72.8181 107.224 70.5364 107.567 69.1663C106.073 67.5275 104.394 66.0654 102.563 64.8088Z" fill="#EBEBEB"/>
<path d="M111.429 63.0779C111.922 61.9986 112.802 61.1407 113.897 60.6725C114.903 60.3634 115.971 60.9249 116.718 61.6769C118.616 63.6032 118.927 66.6009 118.517 69.269C118.33 70.5 117.947 71.8134 116.962 72.5757C115.836 73.441 114.198 73.3638 112.917 72.7509C111.637 72.1379 110.201 70.3197 109.231 69.2947C109.722 67.1457 110.459 65.0598 111.429 63.0779Z" fill="#EBEBEB"/>
<path d="M105.348 66.9514C106.162 66.323 107.266 66.2355 108.293 66.1736C108.586 66.1325 108.886 66.1572 109.169 66.2458C109.392 66.3654 109.587 66.5297 109.742 66.7284C109.897 66.927 110.009 67.1555 110.071 67.3995C110.36 68.1931 110.518 69.0281 110.538 69.8718C110.596 70.4156 110.46 70.9624 110.154 71.417C110 71.5974 109.81 71.7437 109.595 71.8466C109.381 71.9495 109.147 72.0067 108.91 72.0145C108.369 72.007 107.841 71.8516 107.384 71.5653C106.926 71.2791 106.557 70.8731 106.317 70.3921C105.85 69.4247 105.583 68.3736 105.534 67.3016" fill="#EBEBEB"/>
<path d="M110.47 71.0823C110.558 70.2492 110.525 69.4079 110.372 68.5842C110.136 67.7822 109.787 67.0174 109.335 66.3127C109.335 66.3127 109.594 66.4673 109.853 66.8278C110.224 67.3275 110.49 67.8956 110.637 68.4987C110.784 69.1018 110.808 69.728 110.709 70.3406C110.697 70.6045 110.615 70.8605 110.47 71.0823Z" fill="#263238"/>
<path d="M106.976 71.1081C106.893 71.1081 106.82 70.078 106.333 68.9551C105.845 67.8323 105.182 67.0339 105.244 66.9824C105.827 67.4947 106.286 68.1316 106.586 68.8453C106.886 69.5589 107.019 70.3308 106.976 71.103V71.1081Z" fill="#263238"/>
<path d="M106.027 68.8158C105.307 68.8702 104.585 68.8805 103.865 68.8467C103.151 68.905 102.434 68.9171 101.718 68.8828C103.129 68.4866 104.62 68.4635 106.042 68.8158H106.027Z" fill="#263238"/>
<path d="M103.274 72.2514C103.563 71.5234 104.015 70.8701 104.596 70.3405C105.109 69.7465 105.753 69.2777 106.478 68.9705C106.525 69.0374 105.669 69.6246 104.793 70.5157C103.917 71.4067 103.346 72.2926 103.274 72.2514Z" fill="#263238"/>
<path d="M114.442 65.437C113.302 66.5626 111.953 67.4582 110.47 68.0742C111.087 67.5711 111.742 67.1165 112.43 66.7144C113.067 66.2389 113.74 65.8119 114.442 65.437Z" fill="#263238"/>
<path d="M114.779 69.0475C114.779 69.1248 113.83 68.9085 112.668 68.79C111.507 68.6715 110.553 68.6818 110.548 68.6046C111.248 68.422 111.98 68.3904 112.694 68.5119C113.419 68.5445 114.129 68.7269 114.779 69.0475Z" fill="#263238"/>
<path d="M139.137 100.678C136.395 103.428 131.796 103.32 128.861 100.436C125.926 97.5515 125.781 92.9828 128.524 90.2323C131.267 87.4819 135.866 87.59 138.795 90.4744C141.725 93.3588 141.88 97.9275 139.137 100.678Z" fill="white"/>
<path d="M139.391 100.925C136.649 103.681 132.376 103.892 129.846 101.404C127.316 98.9165 127.497 94.6672 130.24 91.9167C132.983 89.1662 137.255 88.9551 139.78 91.4428C142.305 93.9306 142.16 98.1748 139.391 100.925Z" fill="#263238"/>
<path d="M103.657 103.269C102.6 104.27 101.266 104.934 99.8261 105.176C98.3862 105.418 96.9064 105.227 95.5766 104.627C94.2468 104.028 93.1277 103.047 92.3628 101.811C91.598 100.576 91.2224 99.141 91.2841 97.6917C91.3459 96.2423 91.8423 94.8444 92.7096 93.6772C93.5769 92.5101 94.7754 91.6271 96.1515 91.1415C97.5276 90.6559 99.0183 90.5899 100.432 90.952C101.846 91.3141 103.119 92.0877 104.088 93.1736C104.727 93.8645 105.223 94.6737 105.547 95.5549C105.871 96.4362 106.018 97.3723 105.978 98.3098C105.938 99.2473 105.712 100.168 105.314 101.019C104.916 101.87 104.353 102.634 103.657 103.269Z" fill="white"/>
<path d="M104.093 103.758C101.174 106.334 96.8962 106.262 94.5371 103.614C92.178 100.967 92.6342 96.7379 95.5741 94.1729C98.5139 91.6078 102.771 91.6697 105.13 94.3171C107.489 96.9646 107.012 101.193 104.093 103.758Z" fill="#263238"/>
</svg>
